<mxfile host="app.diagrams.net" modified="2023-06-05T08:01:29.513Z" agent="Mozilla/5.0 (Macintosh; Intel Mac OS X 10_15_7) AppleWebKit/537.36 (KHTML, like Gecko) Chrome/113.0.0.0 Safari/537.36" etag="ygpY-7xoOgiy3cSkD-0k" version="21.3.7" type="github" pages="4">
  <diagram name="หน้า-1" id="pvndjQtGDV9gksF-zCKb">
    <mxGraphModel dx="2127" dy="1123" grid="1" gridSize="10" guides="1" tooltips="1" connect="1" arrows="1" fold="1" page="1" pageScale="1" pageWidth="827" pageHeight="1169" math="0" shadow="0">
      <root>
        <mxCell id="0" />
        <mxCell id="1" parent="0" />
        <mxCell id="6AkrqBqsOraPGWXvLTX9-1" value="เริ่ม" style="ellipse;whiteSpace=wrap;html=1;" vertex="1" parent="1">
          <mxGeometry x="212" y="130" width="80" height="40" as="geometry" />
        </mxCell>
        <mxCell id="6AkrqBqsOraPGWXvLTX9-2" value="ตรวจสอบสิทธิ์การใช้งาน" style="rounded=1;whiteSpace=wrap;html=1;" vertex="1" parent="1">
          <mxGeometry x="182" y="210" width="140" height="30" as="geometry" />
        </mxCell>
        <mxCell id="6AkrqBqsOraPGWXvLTX9-3" value="" style="edgeStyle=orthogonalEdgeStyle;rounded=0;orthogonalLoop=1;jettySize=auto;html=1;" edge="1" parent="1" source="6AkrqBqsOraPGWXvLTX9-1" target="6AkrqBqsOraPGWXvLTX9-2">
          <mxGeometry relative="1" as="geometry" />
        </mxCell>
        <mxCell id="6AkrqBqsOraPGWXvLTX9-4" value="มี ?" style="rhombus;whiteSpace=wrap;html=1;" vertex="1" parent="1">
          <mxGeometry x="222" y="270" width="60" height="60" as="geometry" />
        </mxCell>
        <mxCell id="6AkrqBqsOraPGWXvLTX9-5" value="" style="edgeStyle=orthogonalEdgeStyle;rounded=0;orthogonalLoop=1;jettySize=auto;html=1;" edge="1" parent="1" source="6AkrqBqsOraPGWXvLTX9-2" target="6AkrqBqsOraPGWXvLTX9-4">
          <mxGeometry relative="1" as="geometry" />
        </mxCell>
        <mxCell id="6AkrqBqsOraPGWXvLTX9-6" value="สิ้นสุด" style="ellipse;whiteSpace=wrap;html=1;" vertex="1" parent="1">
          <mxGeometry x="407" y="820" width="80" height="40" as="geometry" />
        </mxCell>
        <mxCell id="6AkrqBqsOraPGWXvLTX9-7" style="edgeStyle=orthogonalEdgeStyle;rounded=0;orthogonalLoop=1;jettySize=auto;html=1;entryX=0;entryY=0.5;entryDx=0;entryDy=0;" edge="1" parent="1" source="6AkrqBqsOraPGWXvLTX9-4" target="6AkrqBqsOraPGWXvLTX9-6">
          <mxGeometry relative="1" as="geometry">
            <Array as="points">
              <mxPoint x="252" y="840" />
            </Array>
          </mxGeometry>
        </mxCell>
        <mxCell id="6AkrqBqsOraPGWXvLTX9-8" value="ไม่" style="edgeLabel;html=1;align=center;verticalAlign=middle;resizable=0;points=[];" vertex="1" connectable="0" parent="6AkrqBqsOraPGWXvLTX9-7">
          <mxGeometry x="-0.8925" y="1" relative="1" as="geometry">
            <mxPoint as="offset" />
          </mxGeometry>
        </mxCell>
        <mxCell id="6AkrqBqsOraPGWXvLTX9-9" value="ตรวจสอบ Account &lt;br&gt;สถานะการใช้งาน" style="rounded=1;whiteSpace=wrap;html=1;" vertex="1" parent="1">
          <mxGeometry x="398.35" y="279" width="170" height="40" as="geometry" />
        </mxCell>
        <mxCell id="6AkrqBqsOraPGWXvLTX9-10" value="" style="edgeStyle=orthogonalEdgeStyle;rounded=0;orthogonalLoop=1;jettySize=auto;html=1;" edge="1" parent="1" source="6AkrqBqsOraPGWXvLTX9-4" target="6AkrqBqsOraPGWXvLTX9-9">
          <mxGeometry relative="1" as="geometry">
            <Array as="points">
              <mxPoint x="362" y="300" />
              <mxPoint x="362" y="300" />
            </Array>
          </mxGeometry>
        </mxCell>
        <mxCell id="6AkrqBqsOraPGWXvLTX9-11" value="ใช่" style="edgeLabel;html=1;align=center;verticalAlign=middle;resizable=0;points=[];" vertex="1" connectable="0" parent="6AkrqBqsOraPGWXvLTX9-10">
          <mxGeometry x="-0.7797" y="-1" relative="1" as="geometry">
            <mxPoint as="offset" />
          </mxGeometry>
        </mxCell>
        <mxCell id="6AkrqBqsOraPGWXvLTX9-12" value="มีใน&lt;br&gt;ระบบ &lt;br&gt;?" style="rhombus;whiteSpace=wrap;html=1;" vertex="1" parent="1">
          <mxGeometry x="445.85" y="358" width="75" height="70" as="geometry" />
        </mxCell>
        <mxCell id="6AkrqBqsOraPGWXvLTX9-13" value="" style="edgeStyle=orthogonalEdgeStyle;rounded=0;orthogonalLoop=1;jettySize=auto;html=1;" edge="1" parent="1" source="6AkrqBqsOraPGWXvLTX9-9" target="6AkrqBqsOraPGWXvLTX9-12">
          <mxGeometry relative="1" as="geometry" />
        </mxCell>
        <mxCell id="6AkrqBqsOraPGWXvLTX9-14" value="status&lt;br style=&quot;border-color: var(--border-color);&quot;&gt;= 1 ?" style="rhombus;whiteSpace=wrap;html=1;" vertex="1" parent="1">
          <mxGeometry x="453.35" y="478" width="60" height="60" as="geometry" />
        </mxCell>
        <mxCell id="6AkrqBqsOraPGWXvLTX9-15" value="" style="edgeStyle=orthogonalEdgeStyle;rounded=0;orthogonalLoop=1;jettySize=auto;html=1;" edge="1" parent="1" source="6AkrqBqsOraPGWXvLTX9-12" target="6AkrqBqsOraPGWXvLTX9-14">
          <mxGeometry relative="1" as="geometry" />
        </mxCell>
        <mxCell id="6AkrqBqsOraPGWXvLTX9-16" value="ใช่" style="edgeLabel;html=1;align=center;verticalAlign=middle;resizable=0;points=[];" vertex="1" connectable="0" parent="6AkrqBqsOraPGWXvLTX9-15">
          <mxGeometry x="-0.3254" y="2" relative="1" as="geometry">
            <mxPoint x="-2" as="offset" />
          </mxGeometry>
        </mxCell>
        <mxCell id="6AkrqBqsOraPGWXvLTX9-17" value="Locked&lt;br style=&quot;border-color: var(--border-color);&quot;&gt;= 1 ?&amp;nbsp;" style="rhombus;whiteSpace=wrap;html=1;" vertex="1" parent="1">
          <mxGeometry x="453.35" y="608" width="60" height="60" as="geometry" />
        </mxCell>
        <mxCell id="6AkrqBqsOraPGWXvLTX9-18" value="" style="edgeStyle=orthogonalEdgeStyle;rounded=0;orthogonalLoop=1;jettySize=auto;html=1;" edge="1" parent="1" source="6AkrqBqsOraPGWXvLTX9-14" target="6AkrqBqsOraPGWXvLTX9-17">
          <mxGeometry relative="1" as="geometry" />
        </mxCell>
        <mxCell id="6AkrqBqsOraPGWXvLTX9-19" value="ไม่" style="edgeLabel;html=1;align=center;verticalAlign=middle;resizable=0;points=[];" vertex="1" connectable="0" parent="6AkrqBqsOraPGWXvLTX9-18">
          <mxGeometry x="-0.3745" relative="1" as="geometry">
            <mxPoint as="offset" />
          </mxGeometry>
        </mxCell>
        <mxCell id="6AkrqBqsOraPGWXvLTX9-20" style="edgeStyle=orthogonalEdgeStyle;rounded=0;orthogonalLoop=1;jettySize=auto;html=1;entryX=0;entryY=0;entryDx=0;entryDy=0;" edge="1" parent="1" source="6AkrqBqsOraPGWXvLTX9-21" target="6AkrqBqsOraPGWXvLTX9-6">
          <mxGeometry relative="1" as="geometry">
            <Array as="points">
              <mxPoint x="390" y="820" />
              <mxPoint x="419" y="820" />
            </Array>
          </mxGeometry>
        </mxCell>
        <mxCell id="6AkrqBqsOraPGWXvLTX9-21" value="" style="ellipse;whiteSpace=wrap;html=1;aspect=fixed;" vertex="1" parent="1">
          <mxGeometry x="365.75" y="690" width="30" height="30" as="geometry" />
        </mxCell>
        <mxCell id="6AkrqBqsOraPGWXvLTX9-22" style="edgeStyle=orthogonalEdgeStyle;rounded=0;orthogonalLoop=1;jettySize=auto;html=1;" edge="1" parent="1" source="6AkrqBqsOraPGWXvLTX9-23" target="6AkrqBqsOraPGWXvLTX9-21">
          <mxGeometry relative="1" as="geometry">
            <Array as="points">
              <mxPoint x="282" y="393" />
              <mxPoint x="282" y="710" />
            </Array>
          </mxGeometry>
        </mxCell>
        <mxCell id="6AkrqBqsOraPGWXvLTX9-23" value="rerturn Error Code&amp;nbsp;001&lt;span style=&quot;font-size: medium; text-align: start;&quot;&gt;&lt;/span&gt;" style="rounded=1;whiteSpace=wrap;html=1;" vertex="1" parent="1">
          <mxGeometry x="292" y="373" width="77.5" height="40" as="geometry" />
        </mxCell>
        <mxCell id="6AkrqBqsOraPGWXvLTX9-24" style="edgeStyle=orthogonalEdgeStyle;rounded=0;orthogonalLoop=1;jettySize=auto;html=1;" edge="1" parent="1" source="6AkrqBqsOraPGWXvLTX9-12" target="6AkrqBqsOraPGWXvLTX9-23">
          <mxGeometry relative="1" as="geometry">
            <mxPoint x="382.1" y="498" as="targetPoint" />
          </mxGeometry>
        </mxCell>
        <mxCell id="6AkrqBqsOraPGWXvLTX9-25" value="ไม่" style="edgeLabel;html=1;align=center;verticalAlign=middle;resizable=0;points=[];" vertex="1" connectable="0" parent="6AkrqBqsOraPGWXvLTX9-24">
          <mxGeometry x="-0.6573" y="2" relative="1" as="geometry">
            <mxPoint as="offset" />
          </mxGeometry>
        </mxCell>
        <mxCell id="6AkrqBqsOraPGWXvLTX9-26" style="edgeStyle=orthogonalEdgeStyle;rounded=0;orthogonalLoop=1;jettySize=auto;html=1;entryX=0.5;entryY=0;entryDx=0;entryDy=0;" edge="1" parent="1" source="6AkrqBqsOraPGWXvLTX9-27" target="6AkrqBqsOraPGWXvLTX9-21">
          <mxGeometry relative="1" as="geometry" />
        </mxCell>
        <mxCell id="6AkrqBqsOraPGWXvLTX9-27" value="rerturn Error Code&amp;nbsp;011&lt;span style=&quot;font-size: medium; text-align: start;&quot;&gt;&lt;/span&gt;" style="rounded=1;whiteSpace=wrap;html=1;" vertex="1" parent="1">
          <mxGeometry x="342" y="618" width="77.5" height="40" as="geometry" />
        </mxCell>
        <mxCell id="6AkrqBqsOraPGWXvLTX9-28" value="" style="edgeStyle=orthogonalEdgeStyle;rounded=0;orthogonalLoop=1;jettySize=auto;html=1;" edge="1" parent="1" source="6AkrqBqsOraPGWXvLTX9-17" target="6AkrqBqsOraPGWXvLTX9-27">
          <mxGeometry relative="1" as="geometry" />
        </mxCell>
        <mxCell id="6AkrqBqsOraPGWXvLTX9-29" value="ใช่" style="edgeLabel;html=1;align=center;verticalAlign=middle;resizable=0;points=[];" vertex="1" connectable="0" parent="6AkrqBqsOraPGWXvLTX9-28">
          <mxGeometry x="-0.4608" y="1" relative="1" as="geometry">
            <mxPoint as="offset" />
          </mxGeometry>
        </mxCell>
        <mxCell id="6AkrqBqsOraPGWXvLTX9-30" style="edgeStyle=orthogonalEdgeStyle;rounded=0;orthogonalLoop=1;jettySize=auto;html=1;" edge="1" parent="1" source="6AkrqBqsOraPGWXvLTX9-31" target="6AkrqBqsOraPGWXvLTX9-21">
          <mxGeometry relative="1" as="geometry">
            <mxPoint x="382" y="700" as="targetPoint" />
            <Array as="points">
              <mxPoint x="322" y="508" />
              <mxPoint x="322" y="694" />
            </Array>
          </mxGeometry>
        </mxCell>
        <mxCell id="6AkrqBqsOraPGWXvLTX9-31" value="rerturn Error Code&amp;nbsp;004&lt;span style=&quot;font-size: medium; text-align: start;&quot;&gt;&lt;/span&gt;" style="rounded=1;whiteSpace=wrap;html=1;" vertex="1" parent="1">
          <mxGeometry x="342" y="488" width="77.5" height="40" as="geometry" />
        </mxCell>
        <mxCell id="6AkrqBqsOraPGWXvLTX9-32" value="" style="edgeStyle=orthogonalEdgeStyle;rounded=0;orthogonalLoop=1;jettySize=auto;html=1;" edge="1" parent="1" source="6AkrqBqsOraPGWXvLTX9-14" target="6AkrqBqsOraPGWXvLTX9-31">
          <mxGeometry relative="1" as="geometry" />
        </mxCell>
        <mxCell id="6AkrqBqsOraPGWXvLTX9-33" value="ใช่" style="edgeLabel;html=1;align=center;verticalAlign=middle;resizable=0;points=[];" vertex="1" connectable="0" parent="6AkrqBqsOraPGWXvLTX9-32">
          <mxGeometry x="-0.4608" y="2" relative="1" as="geometry">
            <mxPoint as="offset" />
          </mxGeometry>
        </mxCell>
        <mxCell id="6AkrqBqsOraPGWXvLTX9-34" value="ดึงข้อมูลตำแหน่งทั้งหมด&lt;span style=&quot;font-size: medium; text-align: start;&quot;&gt;&lt;/span&gt;" style="rounded=1;whiteSpace=wrap;html=1;" vertex="1" parent="1">
          <mxGeometry x="554.17" y="614" width="105.85" height="48" as="geometry" />
        </mxCell>
        <mxCell id="6AkrqBqsOraPGWXvLTX9-35" value="" style="edgeStyle=orthogonalEdgeStyle;rounded=0;orthogonalLoop=1;jettySize=auto;html=1;" edge="1" parent="1" source="6AkrqBqsOraPGWXvLTX9-17" target="6AkrqBqsOraPGWXvLTX9-34">
          <mxGeometry relative="1" as="geometry" />
        </mxCell>
        <mxCell id="6AkrqBqsOraPGWXvLTX9-36" style="edgeStyle=orthogonalEdgeStyle;rounded=0;orthogonalLoop=1;jettySize=auto;html=1;entryX=1;entryY=0.5;entryDx=0;entryDy=0;" edge="1" parent="1" source="6AkrqBqsOraPGWXvLTX9-37" target="6AkrqBqsOraPGWXvLTX9-6">
          <mxGeometry relative="1" as="geometry" />
        </mxCell>
        <mxCell id="6AkrqBqsOraPGWXvLTX9-37" value="ส่งข้อมูลตำแหน่งกลับไป" style="rounded=1;whiteSpace=wrap;html=1;" vertex="1" parent="1">
          <mxGeometry x="546.27" y="710" width="121.65" height="50" as="geometry" />
        </mxCell>
        <mxCell id="6AkrqBqsOraPGWXvLTX9-38" value="" style="edgeStyle=orthogonalEdgeStyle;rounded=0;orthogonalLoop=1;jettySize=auto;html=1;" edge="1" parent="1" source="6AkrqBqsOraPGWXvLTX9-34" target="6AkrqBqsOraPGWXvLTX9-37">
          <mxGeometry relative="1" as="geometry" />
        </mxCell>
      </root>
    </mxGraphModel>
  </diagram>
  <diagram id="3hkkwYxO9QXH3jE4lZqy" name="หน้า-2">
    <mxGraphModel dx="1531" dy="809" grid="1" gridSize="10" guides="1" tooltips="1" connect="1" arrows="1" fold="1" page="1" pageScale="1" pageWidth="827" pageHeight="1169" math="0" shadow="0">
      <root>
        <mxCell id="0" />
        <mxCell id="1" parent="0" />
        <mxCell id="YC27T5QhfF0XeN3IbrVt-1" value="" style="group" vertex="1" connectable="0" parent="1">
          <mxGeometry x="60" y="110" width="707.5" height="730" as="geometry" />
        </mxCell>
        <mxCell id="YC27T5QhfF0XeN3IbrVt-2" value="เริ่ม" style="ellipse;whiteSpace=wrap;html=1;" vertex="1" parent="YC27T5QhfF0XeN3IbrVt-1">
          <mxGeometry x="30" width="80" height="40" as="geometry" />
        </mxCell>
        <mxCell id="YC27T5QhfF0XeN3IbrVt-3" value="ตรวจสอบสิทธิ์การใช้งาน" style="rounded=1;whiteSpace=wrap;html=1;" vertex="1" parent="YC27T5QhfF0XeN3IbrVt-1">
          <mxGeometry y="80" width="140" height="30" as="geometry" />
        </mxCell>
        <mxCell id="YC27T5QhfF0XeN3IbrVt-4" value="" style="edgeStyle=orthogonalEdgeStyle;rounded=0;orthogonalLoop=1;jettySize=auto;html=1;" edge="1" parent="YC27T5QhfF0XeN3IbrVt-1" source="YC27T5QhfF0XeN3IbrVt-2" target="YC27T5QhfF0XeN3IbrVt-3">
          <mxGeometry relative="1" as="geometry" />
        </mxCell>
        <mxCell id="YC27T5QhfF0XeN3IbrVt-5" value="มี ?" style="rhombus;whiteSpace=wrap;html=1;" vertex="1" parent="YC27T5QhfF0XeN3IbrVt-1">
          <mxGeometry x="40" y="140" width="60" height="60" as="geometry" />
        </mxCell>
        <mxCell id="YC27T5QhfF0XeN3IbrVt-6" value="" style="edgeStyle=orthogonalEdgeStyle;rounded=0;orthogonalLoop=1;jettySize=auto;html=1;" edge="1" parent="YC27T5QhfF0XeN3IbrVt-1" source="YC27T5QhfF0XeN3IbrVt-3" target="YC27T5QhfF0XeN3IbrVt-5">
          <mxGeometry relative="1" as="geometry" />
        </mxCell>
        <mxCell id="YC27T5QhfF0XeN3IbrVt-7" value="สิ้นสุด" style="ellipse;whiteSpace=wrap;html=1;" vertex="1" parent="YC27T5QhfF0XeN3IbrVt-1">
          <mxGeometry x="225" y="690" width="80" height="40" as="geometry" />
        </mxCell>
        <mxCell id="YC27T5QhfF0XeN3IbrVt-8" style="edgeStyle=orthogonalEdgeStyle;rounded=0;orthogonalLoop=1;jettySize=auto;html=1;entryX=0;entryY=0.5;entryDx=0;entryDy=0;" edge="1" parent="YC27T5QhfF0XeN3IbrVt-1" source="YC27T5QhfF0XeN3IbrVt-5" target="YC27T5QhfF0XeN3IbrVt-7">
          <mxGeometry relative="1" as="geometry">
            <Array as="points">
              <mxPoint x="70" y="710" />
            </Array>
          </mxGeometry>
        </mxCell>
        <mxCell id="YC27T5QhfF0XeN3IbrVt-9" value="ไม่" style="edgeLabel;html=1;align=center;verticalAlign=middle;resizable=0;points=[];" vertex="1" connectable="0" parent="YC27T5QhfF0XeN3IbrVt-8">
          <mxGeometry x="-0.8925" y="1" relative="1" as="geometry">
            <mxPoint as="offset" />
          </mxGeometry>
        </mxCell>
        <mxCell id="YC27T5QhfF0XeN3IbrVt-10" value="ตรวจสอบ Account &lt;br&gt;สถานะการใช้งาน" style="rounded=1;whiteSpace=wrap;html=1;" vertex="1" parent="YC27T5QhfF0XeN3IbrVt-1">
          <mxGeometry x="216.3499999999999" y="149" width="170" height="40" as="geometry" />
        </mxCell>
        <mxCell id="YC27T5QhfF0XeN3IbrVt-11" value="" style="edgeStyle=orthogonalEdgeStyle;rounded=0;orthogonalLoop=1;jettySize=auto;html=1;" edge="1" parent="YC27T5QhfF0XeN3IbrVt-1" source="YC27T5QhfF0XeN3IbrVt-5" target="YC27T5QhfF0XeN3IbrVt-10">
          <mxGeometry relative="1" as="geometry">
            <Array as="points">
              <mxPoint x="180" y="170" />
              <mxPoint x="180" y="170" />
            </Array>
          </mxGeometry>
        </mxCell>
        <mxCell id="YC27T5QhfF0XeN3IbrVt-12" value="ใช่" style="edgeLabel;html=1;align=center;verticalAlign=middle;resizable=0;points=[];" vertex="1" connectable="0" parent="YC27T5QhfF0XeN3IbrVt-11">
          <mxGeometry x="-0.7797" y="-1" relative="1" as="geometry">
            <mxPoint as="offset" />
          </mxGeometry>
        </mxCell>
        <mxCell id="YC27T5QhfF0XeN3IbrVt-13" value="มีใน&lt;br&gt;ระบบ &lt;br&gt;?" style="rhombus;whiteSpace=wrap;html=1;" vertex="1" parent="YC27T5QhfF0XeN3IbrVt-1">
          <mxGeometry x="263.8499999999999" y="228" width="75" height="70" as="geometry" />
        </mxCell>
        <mxCell id="YC27T5QhfF0XeN3IbrVt-14" value="" style="edgeStyle=orthogonalEdgeStyle;rounded=0;orthogonalLoop=1;jettySize=auto;html=1;" edge="1" parent="YC27T5QhfF0XeN3IbrVt-1" source="YC27T5QhfF0XeN3IbrVt-10" target="YC27T5QhfF0XeN3IbrVt-13">
          <mxGeometry relative="1" as="geometry" />
        </mxCell>
        <mxCell id="YC27T5QhfF0XeN3IbrVt-15" value="status&lt;br style=&quot;border-color: var(--border-color);&quot;&gt;= 1 ?" style="rhombus;whiteSpace=wrap;html=1;" vertex="1" parent="YC27T5QhfF0XeN3IbrVt-1">
          <mxGeometry x="271.3499999999999" y="348" width="60" height="60" as="geometry" />
        </mxCell>
        <mxCell id="YC27T5QhfF0XeN3IbrVt-16" value="" style="edgeStyle=orthogonalEdgeStyle;rounded=0;orthogonalLoop=1;jettySize=auto;html=1;" edge="1" parent="YC27T5QhfF0XeN3IbrVt-1" source="YC27T5QhfF0XeN3IbrVt-13" target="YC27T5QhfF0XeN3IbrVt-15">
          <mxGeometry relative="1" as="geometry" />
        </mxCell>
        <mxCell id="YC27T5QhfF0XeN3IbrVt-17" value="ใช่" style="edgeLabel;html=1;align=center;verticalAlign=middle;resizable=0;points=[];" vertex="1" connectable="0" parent="YC27T5QhfF0XeN3IbrVt-16">
          <mxGeometry x="-0.3254" y="2" relative="1" as="geometry">
            <mxPoint x="-2" as="offset" />
          </mxGeometry>
        </mxCell>
        <mxCell id="YC27T5QhfF0XeN3IbrVt-18" value="Locked&lt;br style=&quot;border-color: var(--border-color);&quot;&gt;= 1 ?&amp;nbsp;" style="rhombus;whiteSpace=wrap;html=1;" vertex="1" parent="YC27T5QhfF0XeN3IbrVt-1">
          <mxGeometry x="271.3499999999999" y="478" width="60" height="60" as="geometry" />
        </mxCell>
        <mxCell id="YC27T5QhfF0XeN3IbrVt-19" value="" style="edgeStyle=orthogonalEdgeStyle;rounded=0;orthogonalLoop=1;jettySize=auto;html=1;" edge="1" parent="YC27T5QhfF0XeN3IbrVt-1" source="YC27T5QhfF0XeN3IbrVt-15" target="YC27T5QhfF0XeN3IbrVt-18">
          <mxGeometry relative="1" as="geometry" />
        </mxCell>
        <mxCell id="YC27T5QhfF0XeN3IbrVt-20" value="ไม่" style="edgeLabel;html=1;align=center;verticalAlign=middle;resizable=0;points=[];" vertex="1" connectable="0" parent="YC27T5QhfF0XeN3IbrVt-19">
          <mxGeometry x="-0.3745" relative="1" as="geometry">
            <mxPoint as="offset" />
          </mxGeometry>
        </mxCell>
        <mxCell id="YC27T5QhfF0XeN3IbrVt-21" style="edgeStyle=orthogonalEdgeStyle;rounded=0;orthogonalLoop=1;jettySize=auto;html=1;entryX=0;entryY=0;entryDx=0;entryDy=0;" edge="1" parent="YC27T5QhfF0XeN3IbrVt-1" source="YC27T5QhfF0XeN3IbrVt-22" target="YC27T5QhfF0XeN3IbrVt-7">
          <mxGeometry relative="1" as="geometry">
            <Array as="points">
              <mxPoint x="208" y="690" />
              <mxPoint x="237" y="690" />
            </Array>
          </mxGeometry>
        </mxCell>
        <mxCell id="YC27T5QhfF0XeN3IbrVt-22" value="" style="ellipse;whiteSpace=wrap;html=1;aspect=fixed;" vertex="1" parent="YC27T5QhfF0XeN3IbrVt-1">
          <mxGeometry x="183.75" y="560" width="30" height="30" as="geometry" />
        </mxCell>
        <mxCell id="YC27T5QhfF0XeN3IbrVt-23" style="edgeStyle=orthogonalEdgeStyle;rounded=0;orthogonalLoop=1;jettySize=auto;html=1;" edge="1" parent="YC27T5QhfF0XeN3IbrVt-1" source="YC27T5QhfF0XeN3IbrVt-24" target="YC27T5QhfF0XeN3IbrVt-22">
          <mxGeometry relative="1" as="geometry">
            <Array as="points">
              <mxPoint x="100" y="263" />
              <mxPoint x="100" y="580" />
            </Array>
          </mxGeometry>
        </mxCell>
        <mxCell id="YC27T5QhfF0XeN3IbrVt-24" value="rerturn Error Code&amp;nbsp;001&lt;span style=&quot;font-size: medium; text-align: start;&quot;&gt;&lt;/span&gt;" style="rounded=1;whiteSpace=wrap;html=1;" vertex="1" parent="YC27T5QhfF0XeN3IbrVt-1">
          <mxGeometry x="110" y="243" width="77.5" height="40" as="geometry" />
        </mxCell>
        <mxCell id="YC27T5QhfF0XeN3IbrVt-25" style="edgeStyle=orthogonalEdgeStyle;rounded=0;orthogonalLoop=1;jettySize=auto;html=1;" edge="1" parent="YC27T5QhfF0XeN3IbrVt-1" source="YC27T5QhfF0XeN3IbrVt-13" target="YC27T5QhfF0XeN3IbrVt-24">
          <mxGeometry relative="1" as="geometry">
            <mxPoint x="200.0999999999999" y="368" as="targetPoint" />
          </mxGeometry>
        </mxCell>
        <mxCell id="YC27T5QhfF0XeN3IbrVt-26" value="ไม่" style="edgeLabel;html=1;align=center;verticalAlign=middle;resizable=0;points=[];" vertex="1" connectable="0" parent="YC27T5QhfF0XeN3IbrVt-25">
          <mxGeometry x="-0.6573" y="2" relative="1" as="geometry">
            <mxPoint as="offset" />
          </mxGeometry>
        </mxCell>
        <mxCell id="YC27T5QhfF0XeN3IbrVt-27" style="edgeStyle=orthogonalEdgeStyle;rounded=0;orthogonalLoop=1;jettySize=auto;html=1;entryX=0.5;entryY=0;entryDx=0;entryDy=0;" edge="1" parent="YC27T5QhfF0XeN3IbrVt-1" source="YC27T5QhfF0XeN3IbrVt-28" target="YC27T5QhfF0XeN3IbrVt-22">
          <mxGeometry relative="1" as="geometry" />
        </mxCell>
        <mxCell id="YC27T5QhfF0XeN3IbrVt-28" value="rerturn Error Code&amp;nbsp;011&lt;span style=&quot;font-size: medium; text-align: start;&quot;&gt;&lt;/span&gt;" style="rounded=1;whiteSpace=wrap;html=1;" vertex="1" parent="YC27T5QhfF0XeN3IbrVt-1">
          <mxGeometry x="160" y="488" width="77.5" height="40" as="geometry" />
        </mxCell>
        <mxCell id="YC27T5QhfF0XeN3IbrVt-29" value="" style="edgeStyle=orthogonalEdgeStyle;rounded=0;orthogonalLoop=1;jettySize=auto;html=1;" edge="1" parent="YC27T5QhfF0XeN3IbrVt-1" source="YC27T5QhfF0XeN3IbrVt-18" target="YC27T5QhfF0XeN3IbrVt-28">
          <mxGeometry relative="1" as="geometry" />
        </mxCell>
        <mxCell id="YC27T5QhfF0XeN3IbrVt-30" value="ใช่" style="edgeLabel;html=1;align=center;verticalAlign=middle;resizable=0;points=[];" vertex="1" connectable="0" parent="YC27T5QhfF0XeN3IbrVt-29">
          <mxGeometry x="-0.4608" y="1" relative="1" as="geometry">
            <mxPoint as="offset" />
          </mxGeometry>
        </mxCell>
        <mxCell id="YC27T5QhfF0XeN3IbrVt-31" style="edgeStyle=orthogonalEdgeStyle;rounded=0;orthogonalLoop=1;jettySize=auto;html=1;" edge="1" parent="YC27T5QhfF0XeN3IbrVt-1" source="YC27T5QhfF0XeN3IbrVt-32" target="YC27T5QhfF0XeN3IbrVt-22">
          <mxGeometry relative="1" as="geometry">
            <mxPoint x="200" y="570" as="targetPoint" />
            <Array as="points">
              <mxPoint x="140" y="378" />
              <mxPoint x="140" y="564" />
            </Array>
          </mxGeometry>
        </mxCell>
        <mxCell id="YC27T5QhfF0XeN3IbrVt-32" value="rerturn Error Code&amp;nbsp;004&lt;span style=&quot;font-size: medium; text-align: start;&quot;&gt;&lt;/span&gt;" style="rounded=1;whiteSpace=wrap;html=1;" vertex="1" parent="YC27T5QhfF0XeN3IbrVt-1">
          <mxGeometry x="160" y="358" width="77.5" height="40" as="geometry" />
        </mxCell>
        <mxCell id="YC27T5QhfF0XeN3IbrVt-33" value="" style="edgeStyle=orthogonalEdgeStyle;rounded=0;orthogonalLoop=1;jettySize=auto;html=1;" edge="1" parent="YC27T5QhfF0XeN3IbrVt-1" source="YC27T5QhfF0XeN3IbrVt-15" target="YC27T5QhfF0XeN3IbrVt-32">
          <mxGeometry relative="1" as="geometry" />
        </mxCell>
        <mxCell id="YC27T5QhfF0XeN3IbrVt-34" value="ใช่" style="edgeLabel;html=1;align=center;verticalAlign=middle;resizable=0;points=[];" vertex="1" connectable="0" parent="YC27T5QhfF0XeN3IbrVt-33">
          <mxGeometry x="-0.4608" y="2" relative="1" as="geometry">
            <mxPoint as="offset" />
          </mxGeometry>
        </mxCell>
        <mxCell id="YC27T5QhfF0XeN3IbrVt-35" value="ดึงข้อมูลตำแหน่งด้วย&lt;br&gt;รหัสอ้างอิงที่ได้รับ&lt;span style=&quot;font-size: medium; text-align: start;&quot;&gt;&lt;/span&gt;" style="rounded=1;whiteSpace=wrap;html=1;" vertex="1" parent="YC27T5QhfF0XeN3IbrVt-1">
          <mxGeometry x="363" y="477" width="123.65" height="62" as="geometry" />
        </mxCell>
        <mxCell id="YC27T5QhfF0XeN3IbrVt-36" value="" style="edgeStyle=orthogonalEdgeStyle;rounded=0;orthogonalLoop=1;jettySize=auto;html=1;" edge="1" parent="YC27T5QhfF0XeN3IbrVt-1" source="YC27T5QhfF0XeN3IbrVt-18" target="YC27T5QhfF0XeN3IbrVt-35">
          <mxGeometry relative="1" as="geometry" />
        </mxCell>
        <mxCell id="YC27T5QhfF0XeN3IbrVt-37" value="ส่งข้อมูลตำแหน่งกลับไป" style="rounded=1;whiteSpace=wrap;html=1;" vertex="1" parent="YC27T5QhfF0XeN3IbrVt-1">
          <mxGeometry x="386.3499999999999" y="630" width="77.5" height="40" as="geometry" />
        </mxCell>
        <mxCell id="YC27T5QhfF0XeN3IbrVt-38" style="edgeStyle=orthogonalEdgeStyle;rounded=0;orthogonalLoop=1;jettySize=auto;html=1;entryX=1;entryY=0.5;entryDx=0;entryDy=0;" edge="1" parent="YC27T5QhfF0XeN3IbrVt-1" source="YC27T5QhfF0XeN3IbrVt-40" target="YC27T5QhfF0XeN3IbrVt-37">
          <mxGeometry relative="1" as="geometry">
            <Array as="points">
              <mxPoint x="560" y="650" />
            </Array>
          </mxGeometry>
        </mxCell>
        <mxCell id="YC27T5QhfF0XeN3IbrVt-39" value="ใช่" style="edgeLabel;html=1;align=center;verticalAlign=middle;resizable=0;points=[];" vertex="1" connectable="0" parent="YC27T5QhfF0XeN3IbrVt-38">
          <mxGeometry x="-0.7968" y="2" relative="1" as="geometry">
            <mxPoint as="offset" />
          </mxGeometry>
        </mxCell>
        <mxCell id="YC27T5QhfF0XeN3IbrVt-40" value="มี ?" style="rhombus;whiteSpace=wrap;html=1;" vertex="1" parent="YC27T5QhfF0XeN3IbrVt-1">
          <mxGeometry x="530" y="545" width="60" height="60" as="geometry" />
        </mxCell>
        <mxCell id="YC27T5QhfF0XeN3IbrVt-41" value="" style="edgeStyle=orthogonalEdgeStyle;rounded=0;orthogonalLoop=1;jettySize=auto;html=1;" edge="1" parent="YC27T5QhfF0XeN3IbrVt-1" source="YC27T5QhfF0XeN3IbrVt-35" target="YC27T5QhfF0XeN3IbrVt-40">
          <mxGeometry relative="1" as="geometry" />
        </mxCell>
        <mxCell id="YC27T5QhfF0XeN3IbrVt-42" value="rerturn Error Code 31&lt;span style=&quot;font-size: medium; text-align: start;&quot;&gt;&lt;/span&gt;" style="rounded=1;whiteSpace=wrap;html=1;" vertex="1" parent="YC27T5QhfF0XeN3IbrVt-1">
          <mxGeometry x="630" y="555" width="77.5" height="40" as="geometry" />
        </mxCell>
        <mxCell id="YC27T5QhfF0XeN3IbrVt-43" value="" style="edgeStyle=orthogonalEdgeStyle;rounded=0;orthogonalLoop=1;jettySize=auto;html=1;" edge="1" parent="YC27T5QhfF0XeN3IbrVt-1" source="YC27T5QhfF0XeN3IbrVt-40" target="YC27T5QhfF0XeN3IbrVt-42">
          <mxGeometry relative="1" as="geometry" />
        </mxCell>
        <mxCell id="YC27T5QhfF0XeN3IbrVt-44" value="ไม่" style="edgeLabel;html=1;align=center;verticalAlign=middle;resizable=0;points=[];" vertex="1" connectable="0" parent="YC27T5QhfF0XeN3IbrVt-43">
          <mxGeometry x="-0.1637" relative="1" as="geometry">
            <mxPoint as="offset" />
          </mxGeometry>
        </mxCell>
        <mxCell id="YC27T5QhfF0XeN3IbrVt-45" style="edgeStyle=orthogonalEdgeStyle;rounded=0;orthogonalLoop=1;jettySize=auto;html=1;" edge="1" parent="YC27T5QhfF0XeN3IbrVt-1" source="YC27T5QhfF0XeN3IbrVt-46" target="YC27T5QhfF0XeN3IbrVt-7">
          <mxGeometry relative="1" as="geometry" />
        </mxCell>
        <mxCell id="YC27T5QhfF0XeN3IbrVt-46" value="" style="ellipse;whiteSpace=wrap;html=1;aspect=fixed;" vertex="1" parent="YC27T5QhfF0XeN3IbrVt-1">
          <mxGeometry x="346" y="695" width="30" height="30" as="geometry" />
        </mxCell>
        <mxCell id="YC27T5QhfF0XeN3IbrVt-47" style="edgeStyle=orthogonalEdgeStyle;rounded=0;orthogonalLoop=1;jettySize=auto;html=1;" edge="1" parent="YC27T5QhfF0XeN3IbrVt-1" source="YC27T5QhfF0XeN3IbrVt-37" target="YC27T5QhfF0XeN3IbrVt-46">
          <mxGeometry relative="1" as="geometry" />
        </mxCell>
        <mxCell id="YC27T5QhfF0XeN3IbrVt-48" style="edgeStyle=orthogonalEdgeStyle;rounded=0;orthogonalLoop=1;jettySize=auto;html=1;entryX=1;entryY=0.5;entryDx=0;entryDy=0;" edge="1" parent="YC27T5QhfF0XeN3IbrVt-1" source="YC27T5QhfF0XeN3IbrVt-42" target="YC27T5QhfF0XeN3IbrVt-46">
          <mxGeometry relative="1" as="geometry">
            <mxPoint x="660" y="710" as="targetPoint" />
            <Array as="points">
              <mxPoint x="669" y="710" />
            </Array>
          </mxGeometry>
        </mxCell>
      </root>
    </mxGraphModel>
  </diagram>
  <diagram id="uye1eQ3-C8N0neEr3bpU" name="หน้า-3">
    <mxGraphModel dx="1823" dy="963" grid="1" gridSize="10" guides="1" tooltips="1" connect="1" arrows="1" fold="1" page="1" pageScale="1" pageWidth="827" pageHeight="1169" math="0" shadow="0">
      <root>
        <mxCell id="0" />
        <mxCell id="1" parent="0" />
        <mxCell id="BV-0zUPtr8ZpuxicGNBo-2" value="เริ่ม" style="ellipse;whiteSpace=wrap;html=1;" vertex="1" parent="1">
          <mxGeometry x="60" y="30" width="80" height="40" as="geometry" />
        </mxCell>
        <mxCell id="BV-0zUPtr8ZpuxicGNBo-3" value="ตรวจสอบสิทธิ์การใช้งาน" style="rounded=1;whiteSpace=wrap;html=1;" vertex="1" parent="1">
          <mxGeometry x="30" y="110" width="140" height="30" as="geometry" />
        </mxCell>
        <mxCell id="BV-0zUPtr8ZpuxicGNBo-4" value="" style="edgeStyle=orthogonalEdgeStyle;rounded=0;orthogonalLoop=1;jettySize=auto;html=1;" edge="1" parent="1" source="BV-0zUPtr8ZpuxicGNBo-2" target="BV-0zUPtr8ZpuxicGNBo-3">
          <mxGeometry relative="1" as="geometry" />
        </mxCell>
        <mxCell id="BV-0zUPtr8ZpuxicGNBo-5" value="มี ?" style="rhombus;whiteSpace=wrap;html=1;" vertex="1" parent="1">
          <mxGeometry x="70" y="170" width="60" height="60" as="geometry" />
        </mxCell>
        <mxCell id="BV-0zUPtr8ZpuxicGNBo-6" value="" style="edgeStyle=orthogonalEdgeStyle;rounded=0;orthogonalLoop=1;jettySize=auto;html=1;" edge="1" parent="1" source="BV-0zUPtr8ZpuxicGNBo-3" target="BV-0zUPtr8ZpuxicGNBo-5">
          <mxGeometry relative="1" as="geometry" />
        </mxCell>
        <mxCell id="BV-0zUPtr8ZpuxicGNBo-7" value="สิ้นสุด" style="ellipse;whiteSpace=wrap;html=1;" vertex="1" parent="1">
          <mxGeometry x="255" y="720" width="80" height="40" as="geometry" />
        </mxCell>
        <mxCell id="BV-0zUPtr8ZpuxicGNBo-8" style="edgeStyle=orthogonalEdgeStyle;rounded=0;orthogonalLoop=1;jettySize=auto;html=1;entryX=0;entryY=0.5;entryDx=0;entryDy=0;" edge="1" parent="1" source="BV-0zUPtr8ZpuxicGNBo-5" target="BV-0zUPtr8ZpuxicGNBo-7">
          <mxGeometry relative="1" as="geometry">
            <Array as="points">
              <mxPoint x="100" y="740" />
            </Array>
          </mxGeometry>
        </mxCell>
        <mxCell id="BV-0zUPtr8ZpuxicGNBo-9" value="ไม่" style="edgeLabel;html=1;align=center;verticalAlign=middle;resizable=0;points=[];" vertex="1" connectable="0" parent="BV-0zUPtr8ZpuxicGNBo-8">
          <mxGeometry x="-0.8925" y="1" relative="1" as="geometry">
            <mxPoint as="offset" />
          </mxGeometry>
        </mxCell>
        <mxCell id="BV-0zUPtr8ZpuxicGNBo-10" value="ตรวจสอบ Account &lt;br&gt;สถานะการใช้งาน" style="rounded=1;whiteSpace=wrap;html=1;" vertex="1" parent="1">
          <mxGeometry x="305.9999999999999" y="180" width="170" height="40" as="geometry" />
        </mxCell>
        <mxCell id="BV-0zUPtr8ZpuxicGNBo-11" value="" style="edgeStyle=orthogonalEdgeStyle;rounded=0;orthogonalLoop=1;jettySize=auto;html=1;" edge="1" parent="1" source="BV-0zUPtr8ZpuxicGNBo-5" target="BV-0zUPtr8ZpuxicGNBo-10">
          <mxGeometry relative="1" as="geometry">
            <Array as="points">
              <mxPoint x="210" y="200" />
              <mxPoint x="210" y="200" />
            </Array>
          </mxGeometry>
        </mxCell>
        <mxCell id="BV-0zUPtr8ZpuxicGNBo-12" value="ใช่" style="edgeLabel;html=1;align=center;verticalAlign=middle;resizable=0;points=[];" vertex="1" connectable="0" parent="BV-0zUPtr8ZpuxicGNBo-11">
          <mxGeometry x="-0.7797" y="-1" relative="1" as="geometry">
            <mxPoint as="offset" />
          </mxGeometry>
        </mxCell>
        <mxCell id="BV-0zUPtr8ZpuxicGNBo-13" value="" style="edgeStyle=orthogonalEdgeStyle;rounded=0;orthogonalLoop=1;jettySize=auto;html=1;" edge="1" parent="1" source="BV-0zUPtr8ZpuxicGNBo-10" target="BV-0zUPtr8ZpuxicGNBo-30">
          <mxGeometry relative="1" as="geometry" />
        </mxCell>
        <mxCell id="BV-0zUPtr8ZpuxicGNBo-14" style="edgeStyle=orthogonalEdgeStyle;rounded=0;orthogonalLoop=1;jettySize=auto;html=1;entryX=0;entryY=0;entryDx=0;entryDy=0;" edge="1" parent="1" target="BV-0zUPtr8ZpuxicGNBo-7">
          <mxGeometry relative="1" as="geometry">
            <Array as="points">
              <mxPoint x="238" y="720" />
              <mxPoint x="267" y="720" />
            </Array>
            <mxPoint x="190" y="710" as="sourcePoint" />
          </mxGeometry>
        </mxCell>
        <mxCell id="BV-0zUPtr8ZpuxicGNBo-15" value="" style="ellipse;whiteSpace=wrap;html=1;aspect=fixed;" vertex="1" parent="1">
          <mxGeometry x="167.5" y="690" width="30" height="30" as="geometry" />
        </mxCell>
        <mxCell id="BV-0zUPtr8ZpuxicGNBo-16" value="มี ?" style="rhombus;whiteSpace=wrap;html=1;" vertex="1" parent="1">
          <mxGeometry x="560" y="575" width="60" height="60" as="geometry" />
        </mxCell>
        <mxCell id="BV-0zUPtr8ZpuxicGNBo-17" value="rerturn Error Code 032&lt;span style=&quot;font-size: medium; text-align: start;&quot;&gt;&lt;/span&gt;" style="rounded=1;whiteSpace=wrap;html=1;" vertex="1" parent="1">
          <mxGeometry x="351.45000000000005" y="655" width="77.5" height="40" as="geometry" />
        </mxCell>
        <mxCell id="BV-0zUPtr8ZpuxicGNBo-18" style="edgeStyle=orthogonalEdgeStyle;rounded=0;orthogonalLoop=1;jettySize=auto;html=1;" edge="1" parent="1" source="BV-0zUPtr8ZpuxicGNBo-19" target="BV-0zUPtr8ZpuxicGNBo-7">
          <mxGeometry relative="1" as="geometry" />
        </mxCell>
        <mxCell id="BV-0zUPtr8ZpuxicGNBo-19" value="" style="ellipse;whiteSpace=wrap;html=1;aspect=fixed;" vertex="1" parent="1">
          <mxGeometry x="376" y="725" width="30" height="30" as="geometry" />
        </mxCell>
        <mxCell id="BV-0zUPtr8ZpuxicGNBo-20" style="edgeStyle=orthogonalEdgeStyle;rounded=0;orthogonalLoop=1;jettySize=auto;html=1;" edge="1" parent="1" source="BV-0zUPtr8ZpuxicGNBo-17" target="BV-0zUPtr8ZpuxicGNBo-19">
          <mxGeometry relative="1" as="geometry" />
        </mxCell>
        <mxCell id="BV-0zUPtr8ZpuxicGNBo-23" style="edgeStyle=orthogonalEdgeStyle;rounded=0;orthogonalLoop=1;jettySize=auto;html=1;" edge="1" parent="1" source="BV-0zUPtr8ZpuxicGNBo-16" target="EjHG9Dcu0GjLnQgO5zlT-4">
          <mxGeometry relative="1" as="geometry">
            <Array as="points">
              <mxPoint x="684" y="605" />
            </Array>
            <mxPoint x="684" y="644" as="targetPoint" />
          </mxGeometry>
        </mxCell>
        <mxCell id="BV-0zUPtr8ZpuxicGNBo-24" value="ไม่" style="edgeLabel;html=1;align=center;verticalAlign=middle;resizable=0;points=[];" vertex="1" connectable="0" parent="BV-0zUPtr8ZpuxicGNBo-23">
          <mxGeometry x="-0.7968" y="2" relative="1" as="geometry">
            <mxPoint x="11" y="1" as="offset" />
          </mxGeometry>
        </mxCell>
        <mxCell id="BV-0zUPtr8ZpuxicGNBo-29" style="edgeStyle=orthogonalEdgeStyle;rounded=0;orthogonalLoop=1;jettySize=auto;html=1;entryX=0;entryY=0.5;entryDx=0;entryDy=0;" edge="1" parent="1" source="BV-0zUPtr8ZpuxicGNBo-53" target="BV-0zUPtr8ZpuxicGNBo-15">
          <mxGeometry relative="1" as="geometry">
            <mxPoint x="136.25" y="353" as="sourcePoint" />
            <Array as="points">
              <mxPoint x="120" y="353" />
              <mxPoint x="120" y="710" />
              <mxPoint x="168" y="710" />
            </Array>
          </mxGeometry>
        </mxCell>
        <mxCell id="BV-0zUPtr8ZpuxicGNBo-30" value="มีใน&lt;br&gt;ระบบ &lt;br&gt;?" style="rhombus;whiteSpace=wrap;html=1;" vertex="1" parent="1">
          <mxGeometry x="353.94999999999993" y="258" width="75" height="70" as="geometry" />
        </mxCell>
        <mxCell id="BV-0zUPtr8ZpuxicGNBo-31" value="status&lt;br style=&quot;border-color: var(--border-color);&quot;&gt;= 1 ?" style="rhombus;whiteSpace=wrap;html=1;" vertex="1" parent="1">
          <mxGeometry x="361.44999999999993" y="378" width="60" height="60" as="geometry" />
        </mxCell>
        <mxCell id="BV-0zUPtr8ZpuxicGNBo-32" value="" style="edgeStyle=orthogonalEdgeStyle;rounded=0;orthogonalLoop=1;jettySize=auto;html=1;" edge="1" parent="1" source="BV-0zUPtr8ZpuxicGNBo-30" target="BV-0zUPtr8ZpuxicGNBo-31">
          <mxGeometry relative="1" as="geometry" />
        </mxCell>
        <mxCell id="BV-0zUPtr8ZpuxicGNBo-33" value="ใช่" style="edgeLabel;html=1;align=center;verticalAlign=middle;resizable=0;points=[];" vertex="1" connectable="0" parent="BV-0zUPtr8ZpuxicGNBo-32">
          <mxGeometry x="-0.3254" y="2" relative="1" as="geometry">
            <mxPoint x="-2" as="offset" />
          </mxGeometry>
        </mxCell>
        <mxCell id="BV-0zUPtr8ZpuxicGNBo-34" value="Locked&lt;br style=&quot;border-color: var(--border-color);&quot;&gt;= 1 ?&amp;nbsp;" style="rhombus;whiteSpace=wrap;html=1;" vertex="1" parent="1">
          <mxGeometry x="361.44999999999993" y="508" width="60" height="60" as="geometry" />
        </mxCell>
        <mxCell id="BV-0zUPtr8ZpuxicGNBo-35" value="" style="edgeStyle=orthogonalEdgeStyle;rounded=0;orthogonalLoop=1;jettySize=auto;html=1;" edge="1" parent="1" source="BV-0zUPtr8ZpuxicGNBo-31" target="BV-0zUPtr8ZpuxicGNBo-34">
          <mxGeometry relative="1" as="geometry" />
        </mxCell>
        <mxCell id="BV-0zUPtr8ZpuxicGNBo-36" value="ไม่" style="edgeLabel;html=1;align=center;verticalAlign=middle;resizable=0;points=[];" vertex="1" connectable="0" parent="BV-0zUPtr8ZpuxicGNBo-35">
          <mxGeometry x="-0.3745" relative="1" as="geometry">
            <mxPoint as="offset" />
          </mxGeometry>
        </mxCell>
        <mxCell id="BV-0zUPtr8ZpuxicGNBo-37" style="edgeStyle=orthogonalEdgeStyle;rounded=0;orthogonalLoop=1;jettySize=auto;html=1;" edge="1" parent="1" source="BV-0zUPtr8ZpuxicGNBo-30" target="BV-0zUPtr8ZpuxicGNBo-45">
          <mxGeometry relative="1" as="geometry">
            <mxPoint x="287.6" y="293" as="targetPoint" />
          </mxGeometry>
        </mxCell>
        <mxCell id="BV-0zUPtr8ZpuxicGNBo-38" value="ไม่" style="edgeLabel;html=1;align=center;verticalAlign=middle;resizable=0;points=[];" vertex="1" connectable="0" parent="BV-0zUPtr8ZpuxicGNBo-37">
          <mxGeometry x="-0.6573" y="2" relative="1" as="geometry">
            <mxPoint as="offset" />
          </mxGeometry>
        </mxCell>
        <mxCell id="BV-0zUPtr8ZpuxicGNBo-39" style="edgeStyle=orthogonalEdgeStyle;rounded=0;orthogonalLoop=1;jettySize=auto;html=1;entryX=0.5;entryY=0;entryDx=0;entryDy=0;" edge="1" parent="1" source="BV-0zUPtr8ZpuxicGNBo-40" target="BV-0zUPtr8ZpuxicGNBo-15">
          <mxGeometry relative="1" as="geometry" />
        </mxCell>
        <mxCell id="BV-0zUPtr8ZpuxicGNBo-40" value="rerturn Error Code&amp;nbsp;011&lt;span style=&quot;font-size: medium; text-align: start;&quot;&gt;&lt;/span&gt;" style="rounded=1;whiteSpace=wrap;html=1;" vertex="1" parent="1">
          <mxGeometry x="237.5" y="630" width="77.5" height="40" as="geometry" />
        </mxCell>
        <mxCell id="BV-0zUPtr8ZpuxicGNBo-41" value="ตรวจสอบว่า positionCode &lt;br&gt;ซ้ำในฐานข้อมูลไหม" style="rounded=1;whiteSpace=wrap;html=1;" vertex="1" parent="1">
          <mxGeometry x="453.1" y="507" width="123.65" height="62" as="geometry" />
        </mxCell>
        <mxCell id="BV-0zUPtr8ZpuxicGNBo-42" value="" style="edgeStyle=orthogonalEdgeStyle;rounded=0;orthogonalLoop=1;jettySize=auto;html=1;" edge="1" parent="1" source="BV-0zUPtr8ZpuxicGNBo-34" target="BV-0zUPtr8ZpuxicGNBo-41">
          <mxGeometry relative="1" as="geometry" />
        </mxCell>
        <mxCell id="BV-0zUPtr8ZpuxicGNBo-43" value="ไม่" style="edgeLabel;html=1;align=center;verticalAlign=middle;resizable=0;points=[];" vertex="1" connectable="0" parent="BV-0zUPtr8ZpuxicGNBo-42">
          <mxGeometry x="0.1426" y="-1" relative="1" as="geometry">
            <mxPoint as="offset" />
          </mxGeometry>
        </mxCell>
        <mxCell id="BV-0zUPtr8ZpuxicGNBo-44" value="" style="edgeStyle=orthogonalEdgeStyle;rounded=0;orthogonalLoop=1;jettySize=auto;html=1;" edge="1" parent="1" source="BV-0zUPtr8ZpuxicGNBo-41" target="BV-0zUPtr8ZpuxicGNBo-16">
          <mxGeometry relative="1" as="geometry">
            <Array as="points">
              <mxPoint x="590" y="540" />
            </Array>
          </mxGeometry>
        </mxCell>
        <mxCell id="BV-0zUPtr8ZpuxicGNBo-45" value="สร้างข้อมูล ActivityLog&lt;span style=&quot;font-size: medium; text-align: start;&quot;&gt;&lt;/span&gt;" style="rounded=1;whiteSpace=wrap;html=1;" vertex="1" parent="1">
          <mxGeometry x="237.5" y="273" width="77.5" height="40" as="geometry" />
        </mxCell>
        <mxCell id="BV-0zUPtr8ZpuxicGNBo-46" style="edgeStyle=orthogonalEdgeStyle;rounded=0;orthogonalLoop=1;jettySize=auto;html=1;entryX=0;entryY=0;entryDx=0;entryDy=0;" edge="1" parent="1" source="BV-0zUPtr8ZpuxicGNBo-47" target="BV-0zUPtr8ZpuxicGNBo-15">
          <mxGeometry relative="1" as="geometry">
            <Array as="points">
              <mxPoint x="130" y="470" />
              <mxPoint x="130" y="694" />
              <mxPoint x="172" y="694" />
            </Array>
          </mxGeometry>
        </mxCell>
        <mxCell id="BV-0zUPtr8ZpuxicGNBo-47" value="rerturn Error Code&amp;nbsp;004&lt;span style=&quot;font-size: medium; text-align: start;&quot;&gt;&lt;/span&gt;" style="rounded=1;whiteSpace=wrap;html=1;" vertex="1" parent="1">
          <mxGeometry x="136.25" y="450" width="77.5" height="40" as="geometry" />
        </mxCell>
        <mxCell id="BV-0zUPtr8ZpuxicGNBo-48" value="สร้างข้อมูล ActivityLog&lt;span style=&quot;font-size: medium; text-align: start;&quot;&gt;&lt;/span&gt;" style="rounded=1;whiteSpace=wrap;html=1;" vertex="1" parent="1">
          <mxGeometry x="237.5" y="388" width="77.5" height="40" as="geometry" />
        </mxCell>
        <mxCell id="BV-0zUPtr8ZpuxicGNBo-49" value="" style="edgeStyle=orthogonalEdgeStyle;rounded=0;orthogonalLoop=1;jettySize=auto;html=1;" edge="1" parent="1" source="BV-0zUPtr8ZpuxicGNBo-31" target="BV-0zUPtr8ZpuxicGNBo-48">
          <mxGeometry relative="1" as="geometry" />
        </mxCell>
        <mxCell id="BV-0zUPtr8ZpuxicGNBo-50" value="ใช่" style="edgeLabel;html=1;align=center;verticalAlign=middle;resizable=0;points=[];" vertex="1" connectable="0" parent="BV-0zUPtr8ZpuxicGNBo-49">
          <mxGeometry x="-0.1729" relative="1" as="geometry">
            <mxPoint as="offset" />
          </mxGeometry>
        </mxCell>
        <mxCell id="BV-0zUPtr8ZpuxicGNBo-51" value="บันทึกข้อมูล&lt;span style=&quot;font-size: medium; text-align: start;&quot;&gt;&lt;/span&gt;" style="rounded=1;whiteSpace=wrap;html=1;" vertex="1" parent="1">
          <mxGeometry x="140" y="273" width="77.5" height="40" as="geometry" />
        </mxCell>
        <mxCell id="BV-0zUPtr8ZpuxicGNBo-52" value="" style="edgeStyle=orthogonalEdgeStyle;rounded=0;orthogonalLoop=1;jettySize=auto;html=1;" edge="1" parent="1" source="BV-0zUPtr8ZpuxicGNBo-45" target="BV-0zUPtr8ZpuxicGNBo-51">
          <mxGeometry relative="1" as="geometry" />
        </mxCell>
        <mxCell id="BV-0zUPtr8ZpuxicGNBo-53" value="rerturn Error Code&amp;nbsp;001&lt;span style=&quot;font-size: medium; text-align: start;&quot;&gt;&lt;/span&gt;" style="rounded=1;whiteSpace=wrap;html=1;" vertex="1" parent="1">
          <mxGeometry x="140" y="338" width="77.5" height="40" as="geometry" />
        </mxCell>
        <mxCell id="BV-0zUPtr8ZpuxicGNBo-54" value="" style="edgeStyle=orthogonalEdgeStyle;rounded=0;orthogonalLoop=1;jettySize=auto;html=1;" edge="1" parent="1" source="BV-0zUPtr8ZpuxicGNBo-51" target="BV-0zUPtr8ZpuxicGNBo-53">
          <mxGeometry relative="1" as="geometry" />
        </mxCell>
        <mxCell id="BV-0zUPtr8ZpuxicGNBo-55" value="" style="edgeStyle=orthogonalEdgeStyle;rounded=0;orthogonalLoop=1;jettySize=auto;html=1;" edge="1" parent="1" source="BV-0zUPtr8ZpuxicGNBo-56" target="BV-0zUPtr8ZpuxicGNBo-47">
          <mxGeometry relative="1" as="geometry" />
        </mxCell>
        <mxCell id="BV-0zUPtr8ZpuxicGNBo-56" value="บันทึกข้อมูล&lt;span style=&quot;font-size: medium; text-align: start;&quot;&gt;&lt;/span&gt;" style="rounded=1;whiteSpace=wrap;html=1;" vertex="1" parent="1">
          <mxGeometry x="237.5" y="450" width="77.5" height="40" as="geometry" />
        </mxCell>
        <mxCell id="BV-0zUPtr8ZpuxicGNBo-57" value="" style="edgeStyle=orthogonalEdgeStyle;rounded=0;orthogonalLoop=1;jettySize=auto;html=1;" edge="1" parent="1" source="BV-0zUPtr8ZpuxicGNBo-48" target="BV-0zUPtr8ZpuxicGNBo-56">
          <mxGeometry relative="1" as="geometry" />
        </mxCell>
        <mxCell id="BV-0zUPtr8ZpuxicGNBo-58" value="สร้างข้อมูล ActivityLog&lt;span style=&quot;font-size: medium; text-align: start;&quot;&gt;&lt;/span&gt;" style="rounded=1;whiteSpace=wrap;html=1;" vertex="1" parent="1">
          <mxGeometry x="237.5" y="518" width="77.5" height="40" as="geometry" />
        </mxCell>
        <mxCell id="BV-0zUPtr8ZpuxicGNBo-59" value="" style="edgeStyle=orthogonalEdgeStyle;rounded=0;orthogonalLoop=1;jettySize=auto;html=1;" edge="1" parent="1" source="BV-0zUPtr8ZpuxicGNBo-34" target="BV-0zUPtr8ZpuxicGNBo-58">
          <mxGeometry relative="1" as="geometry" />
        </mxCell>
        <mxCell id="BV-0zUPtr8ZpuxicGNBo-60" value="ใช่" style="edgeLabel;html=1;align=center;verticalAlign=middle;resizable=0;points=[];" vertex="1" connectable="0" parent="BV-0zUPtr8ZpuxicGNBo-59">
          <mxGeometry x="-0.1659" y="-1" relative="1" as="geometry">
            <mxPoint as="offset" />
          </mxGeometry>
        </mxCell>
        <mxCell id="BV-0zUPtr8ZpuxicGNBo-61" value="" style="edgeStyle=orthogonalEdgeStyle;rounded=0;orthogonalLoop=1;jettySize=auto;html=1;" edge="1" parent="1" source="BV-0zUPtr8ZpuxicGNBo-62" target="BV-0zUPtr8ZpuxicGNBo-40">
          <mxGeometry relative="1" as="geometry" />
        </mxCell>
        <mxCell id="BV-0zUPtr8ZpuxicGNBo-62" value="บันทึกข้อมูล&lt;span style=&quot;font-size: medium; text-align: start;&quot;&gt;&lt;/span&gt;" style="rounded=1;whiteSpace=wrap;html=1;" vertex="1" parent="1">
          <mxGeometry x="237.5" y="575" width="77.5" height="40" as="geometry" />
        </mxCell>
        <mxCell id="BV-0zUPtr8ZpuxicGNBo-63" value="สร้างข้อมูล ActivityLog&lt;span style=&quot;font-size: medium; text-align: start;&quot;&gt;&lt;/span&gt;" style="rounded=1;whiteSpace=wrap;html=1;" vertex="1" parent="1">
          <mxGeometry x="453.1" y="585" width="77.5" height="40" as="geometry" />
        </mxCell>
        <mxCell id="BV-0zUPtr8ZpuxicGNBo-64" value="" style="edgeStyle=orthogonalEdgeStyle;rounded=0;orthogonalLoop=1;jettySize=auto;html=1;" edge="1" parent="1" source="BV-0zUPtr8ZpuxicGNBo-58" target="BV-0zUPtr8ZpuxicGNBo-62">
          <mxGeometry relative="1" as="geometry" />
        </mxCell>
        <mxCell id="BV-0zUPtr8ZpuxicGNBo-65" style="edgeStyle=orthogonalEdgeStyle;rounded=0;orthogonalLoop=1;jettySize=auto;html=1;entryX=0.5;entryY=0;entryDx=0;entryDy=0;" edge="1" parent="1" source="BV-0zUPtr8ZpuxicGNBo-66" target="BV-0zUPtr8ZpuxicGNBo-17">
          <mxGeometry relative="1" as="geometry" />
        </mxCell>
        <mxCell id="BV-0zUPtr8ZpuxicGNBo-66" value="บันทึกข้อมูล&lt;span style=&quot;font-size: medium; text-align: start;&quot;&gt;&lt;/span&gt;" style="rounded=1;whiteSpace=wrap;html=1;" vertex="1" parent="1">
          <mxGeometry x="351.45000000000005" y="585" width="77.5" height="40" as="geometry" />
        </mxCell>
        <mxCell id="BV-0zUPtr8ZpuxicGNBo-67" value="ใช่" style="edgeStyle=orthogonalEdgeStyle;rounded=0;orthogonalLoop=1;jettySize=auto;html=1;" edge="1" parent="1" source="BV-0zUPtr8ZpuxicGNBo-16" target="BV-0zUPtr8ZpuxicGNBo-63">
          <mxGeometry relative="1" as="geometry" />
        </mxCell>
        <mxCell id="BV-0zUPtr8ZpuxicGNBo-68" value="" style="edgeStyle=orthogonalEdgeStyle;rounded=0;orthogonalLoop=1;jettySize=auto;html=1;" edge="1" parent="1" source="BV-0zUPtr8ZpuxicGNBo-63" target="BV-0zUPtr8ZpuxicGNBo-66">
          <mxGeometry relative="1" as="geometry" />
        </mxCell>
        <mxCell id="EjHG9Dcu0GjLnQgO5zlT-4" value="Position Under?" style="rhombus;whiteSpace=wrap;html=1;" vertex="1" parent="1">
          <mxGeometry x="655" y="645" width="60" height="60" as="geometry" />
        </mxCell>
        <mxCell id="zCEMVVLhFSZG2-I51Na0-15" value="ใช่" style="edgeStyle=orthogonalEdgeStyle;rounded=0;orthogonalLoop=1;jettySize=auto;html=1;entryX=0.5;entryY=0;entryDx=0;entryDy=0;" edge="1" parent="1" source="EjHG9Dcu0GjLnQgO5zlT-4" target="zCEMVVLhFSZG2-I51Na0-29">
          <mxGeometry relative="1" as="geometry">
            <mxPoint x="685.0050000000001" y="740" as="targetPoint" />
          </mxGeometry>
        </mxCell>
        <mxCell id="zCEMVVLhFSZG2-I51Na0-41" style="edgeStyle=orthogonalEdgeStyle;rounded=0;orthogonalLoop=1;jettySize=auto;html=1;" edge="1" parent="1" source="zCEMVVLhFSZG2-I51Na0-39" target="BV-0zUPtr8ZpuxicGNBo-19">
          <mxGeometry relative="1" as="geometry">
            <Array as="points">
              <mxPoint x="430" y="1010" />
              <mxPoint x="430" y="751" />
            </Array>
          </mxGeometry>
        </mxCell>
        <mxCell id="zCEMVVLhFSZG2-I51Na0-29" value="positionUnder มีในฐานข้อมูลไหม" style="rounded=1;whiteSpace=wrap;html=1;" vertex="1" parent="1">
          <mxGeometry x="498.75" y="695" width="96.25" height="42.5" as="geometry" />
        </mxCell>
        <mxCell id="zCEMVVLhFSZG2-I51Na0-30" value="มี ?" style="rhombus;whiteSpace=wrap;html=1;" vertex="1" parent="1">
          <mxGeometry x="516.75" y="770" width="60" height="60" as="geometry" />
        </mxCell>
        <mxCell id="zCEMVVLhFSZG2-I51Na0-31" value="" style="edgeStyle=orthogonalEdgeStyle;rounded=0;orthogonalLoop=1;jettySize=auto;html=1;" edge="1" parent="1" source="zCEMVVLhFSZG2-I51Na0-29" target="zCEMVVLhFSZG2-I51Na0-30">
          <mxGeometry relative="1" as="geometry" />
        </mxCell>
        <mxCell id="zCEMVVLhFSZG2-I51Na0-36" style="edgeStyle=orthogonalEdgeStyle;rounded=0;orthogonalLoop=1;jettySize=auto;html=1;entryX=0.5;entryY=0;entryDx=0;entryDy=0;" edge="1" parent="1" source="zCEMVVLhFSZG2-I51Na0-30" target="zCEMVVLhFSZG2-I51Na0-35">
          <mxGeometry relative="1" as="geometry">
            <Array as="points">
              <mxPoint x="479" y="800" />
              <mxPoint x="479" y="850" />
            </Array>
          </mxGeometry>
        </mxCell>
        <mxCell id="zCEMVVLhFSZG2-I51Na0-42" value="ไม่" style="edgeLabel;html=1;align=center;verticalAlign=middle;resizable=0;points=[];" vertex="1" connectable="0" parent="zCEMVVLhFSZG2-I51Na0-36">
          <mxGeometry x="-0.2859" relative="1" as="geometry">
            <mxPoint as="offset" />
          </mxGeometry>
        </mxCell>
        <mxCell id="zCEMVVLhFSZG2-I51Na0-85" style="edgeStyle=orthogonalEdgeStyle;rounded=0;orthogonalLoop=1;jettySize=auto;html=1;entryX=0;entryY=0.5;entryDx=0;entryDy=0;" edge="1" parent="1" source="zCEMVVLhFSZG2-I51Na0-49" target="zCEMVVLhFSZG2-I51Na0-78">
          <mxGeometry relative="1" as="geometry">
            <Array as="points">
              <mxPoint x="695" y="860" />
              <mxPoint x="695" y="741" />
            </Array>
          </mxGeometry>
        </mxCell>
        <mxCell id="zCEMVVLhFSZG2-I51Na0-86" value="ไม่" style="edgeLabel;html=1;align=center;verticalAlign=middle;resizable=0;points=[];" vertex="1" connectable="0" parent="zCEMVVLhFSZG2-I51Na0-85">
          <mxGeometry x="-0.2765" relative="1" as="geometry">
            <mxPoint as="offset" />
          </mxGeometry>
        </mxCell>
        <mxCell id="zCEMVVLhFSZG2-I51Na0-49" value="อ้างอิง&lt;br&gt;ตัวเอง ?" style="rhombus;whiteSpace=wrap;html=1;" vertex="1" parent="1">
          <mxGeometry x="610" y="830" width="70" height="60" as="geometry" />
        </mxCell>
        <mxCell id="zCEMVVLhFSZG2-I51Na0-44" value="" style="edgeStyle=orthogonalEdgeStyle;rounded=0;orthogonalLoop=1;jettySize=auto;html=1;entryX=0.485;entryY=-0.01;entryDx=0;entryDy=0;entryPerimeter=0;" edge="1" parent="1" source="zCEMVVLhFSZG2-I51Na0-30" target="zCEMVVLhFSZG2-I51Na0-49">
          <mxGeometry relative="1" as="geometry">
            <mxPoint x="675" y="880" as="targetPoint" />
            <Array as="points">
              <mxPoint x="644" y="800" />
            </Array>
          </mxGeometry>
        </mxCell>
        <mxCell id="zCEMVVLhFSZG2-I51Na0-45" value="ใช่" style="edgeLabel;html=1;align=center;verticalAlign=middle;resizable=0;points=[];" vertex="1" connectable="0" parent="zCEMVVLhFSZG2-I51Na0-44">
          <mxGeometry x="-0.6759" y="1" relative="1" as="geometry">
            <mxPoint as="offset" />
          </mxGeometry>
        </mxCell>
        <mxCell id="zCEMVVLhFSZG2-I51Na0-61" value="" style="group" vertex="1" connectable="0" parent="1">
          <mxGeometry x="440" y="870" width="78.12" height="160" as="geometry" />
        </mxCell>
        <mxCell id="zCEMVVLhFSZG2-I51Na0-35" value="สร้างข้อมูล ActivityLog&lt;span style=&quot;font-size: medium; text-align: start;&quot;&gt;&lt;/span&gt;" style="rounded=1;whiteSpace=wrap;html=1;" vertex="1" parent="zCEMVVLhFSZG2-I51Na0-61">
          <mxGeometry width="77.5" height="40" as="geometry" />
        </mxCell>
        <mxCell id="zCEMVVLhFSZG2-I51Na0-37" value="บันทึกข้อมูล&lt;span style=&quot;font-size: medium; text-align: start;&quot;&gt;&lt;/span&gt;" style="rounded=1;whiteSpace=wrap;html=1;" vertex="1" parent="zCEMVVLhFSZG2-I51Na0-61">
          <mxGeometry x="0.6200000000000045" y="60" width="77.5" height="40" as="geometry" />
        </mxCell>
        <mxCell id="zCEMVVLhFSZG2-I51Na0-38" value="" style="edgeStyle=orthogonalEdgeStyle;rounded=0;orthogonalLoop=1;jettySize=auto;html=1;" edge="1" parent="zCEMVVLhFSZG2-I51Na0-61" source="zCEMVVLhFSZG2-I51Na0-35" target="zCEMVVLhFSZG2-I51Na0-37">
          <mxGeometry relative="1" as="geometry" />
        </mxCell>
        <mxCell id="zCEMVVLhFSZG2-I51Na0-39" value="rerturn Error Code 045&lt;span style=&quot;font-size: medium; text-align: start;&quot;&gt;&lt;/span&gt;" style="rounded=1;whiteSpace=wrap;html=1;" vertex="1" parent="zCEMVVLhFSZG2-I51Na0-61">
          <mxGeometry y="120" width="77.5" height="40" as="geometry" />
        </mxCell>
        <mxCell id="zCEMVVLhFSZG2-I51Na0-40" value="" style="edgeStyle=orthogonalEdgeStyle;rounded=0;orthogonalLoop=1;jettySize=auto;html=1;" edge="1" parent="zCEMVVLhFSZG2-I51Na0-61" source="zCEMVVLhFSZG2-I51Na0-37" target="zCEMVVLhFSZG2-I51Na0-39">
          <mxGeometry relative="1" as="geometry" />
        </mxCell>
        <mxCell id="zCEMVVLhFSZG2-I51Na0-62" value="" style="group" vertex="1" connectable="0" parent="1">
          <mxGeometry x="540" y="920" width="78.11999999999989" height="160" as="geometry" />
        </mxCell>
        <mxCell id="zCEMVVLhFSZG2-I51Na0-56" value="สร้างข้อมูล ActivityLog&lt;span style=&quot;font-size: medium; text-align: start;&quot;&gt;&lt;/span&gt;" style="rounded=1;whiteSpace=wrap;html=1;" vertex="1" parent="zCEMVVLhFSZG2-I51Na0-62">
          <mxGeometry width="77.5" height="40" as="geometry" />
        </mxCell>
        <mxCell id="zCEMVVLhFSZG2-I51Na0-58" value="บันทึกข้อมูล&lt;span style=&quot;font-size: medium; text-align: start;&quot;&gt;&lt;/span&gt;" style="rounded=1;whiteSpace=wrap;html=1;" vertex="1" parent="zCEMVVLhFSZG2-I51Na0-62">
          <mxGeometry x="0.6199999999998909" y="60" width="77.5" height="40" as="geometry" />
        </mxCell>
        <mxCell id="zCEMVVLhFSZG2-I51Na0-55" value="" style="edgeStyle=orthogonalEdgeStyle;rounded=0;orthogonalLoop=1;jettySize=auto;html=1;" edge="1" parent="zCEMVVLhFSZG2-I51Na0-62" source="zCEMVVLhFSZG2-I51Na0-56" target="zCEMVVLhFSZG2-I51Na0-58">
          <mxGeometry relative="1" as="geometry" />
        </mxCell>
        <mxCell id="zCEMVVLhFSZG2-I51Na0-59" value="rerturn Error Code 046&lt;span style=&quot;font-size: medium; text-align: start;&quot;&gt;&lt;/span&gt;" style="rounded=1;whiteSpace=wrap;html=1;" vertex="1" parent="zCEMVVLhFSZG2-I51Na0-62">
          <mxGeometry y="120" width="77.5" height="40" as="geometry" />
        </mxCell>
        <mxCell id="zCEMVVLhFSZG2-I51Na0-57" value="" style="edgeStyle=orthogonalEdgeStyle;rounded=0;orthogonalLoop=1;jettySize=auto;html=1;" edge="1" parent="zCEMVVLhFSZG2-I51Na0-62" source="zCEMVVLhFSZG2-I51Na0-58" target="zCEMVVLhFSZG2-I51Na0-59">
          <mxGeometry relative="1" as="geometry" />
        </mxCell>
        <mxCell id="zCEMVVLhFSZG2-I51Na0-63" style="edgeStyle=orthogonalEdgeStyle;rounded=0;orthogonalLoop=1;jettySize=auto;html=1;entryX=0.5;entryY=0;entryDx=0;entryDy=0;" edge="1" parent="1" source="zCEMVVLhFSZG2-I51Na0-49" target="zCEMVVLhFSZG2-I51Na0-56">
          <mxGeometry relative="1" as="geometry">
            <Array as="points">
              <mxPoint x="580" y="860" />
              <mxPoint x="580" y="910" />
              <mxPoint x="579" y="910" />
            </Array>
          </mxGeometry>
        </mxCell>
        <mxCell id="zCEMVVLhFSZG2-I51Na0-74" value="ใช่" style="edgeLabel;html=1;align=center;verticalAlign=middle;resizable=0;points=[];" vertex="1" connectable="0" parent="zCEMVVLhFSZG2-I51Na0-63">
          <mxGeometry x="-0.6955" y="-1" relative="1" as="geometry">
            <mxPoint as="offset" />
          </mxGeometry>
        </mxCell>
        <mxCell id="zCEMVVLhFSZG2-I51Na0-75" style="edgeStyle=orthogonalEdgeStyle;rounded=0;orthogonalLoop=1;jettySize=auto;html=1;entryX=0.715;entryY=0.885;entryDx=0;entryDy=0;entryPerimeter=0;" edge="1" parent="1" source="zCEMVVLhFSZG2-I51Na0-59" target="BV-0zUPtr8ZpuxicGNBo-19">
          <mxGeometry relative="1" as="geometry" />
        </mxCell>
        <mxCell id="zCEMVVLhFSZG2-I51Na0-76" style="edgeStyle=orthogonalEdgeStyle;rounded=0;orthogonalLoop=1;jettySize=auto;html=1;entryX=0.274;entryY=0.975;entryDx=0;entryDy=0;entryPerimeter=0;" edge="1" parent="1" source="zCEMVVLhFSZG2-I51Na0-81" target="BV-0zUPtr8ZpuxicGNBo-19">
          <mxGeometry relative="1" as="geometry">
            <mxPoint x="730" y="950" as="targetPoint" />
            <Array as="points">
              <mxPoint x="760" y="1100" />
              <mxPoint x="384" y="1100" />
            </Array>
          </mxGeometry>
        </mxCell>
        <mxCell id="zCEMVVLhFSZG2-I51Na0-77" value="" style="group" vertex="1" connectable="0" parent="1">
          <mxGeometry x="715" y="720" width="96.25" height="177.5" as="geometry" />
        </mxCell>
        <mxCell id="zCEMVVLhFSZG2-I51Na0-78" value="สร้างข้อมูลตำแหน่ง&lt;span style=&quot;font-size: medium; text-align: start;&quot;&gt;&lt;/span&gt;" style="rounded=1;whiteSpace=wrap;html=1;" vertex="1" parent="zCEMVVLhFSZG2-I51Na0-77">
          <mxGeometry width="96.25" height="42.5" as="geometry" />
        </mxCell>
        <mxCell id="zCEMVVLhFSZG2-I51Na0-79" value="สร้างข้อมูล ActivityLog&lt;span style=&quot;font-size: medium; text-align: start;&quot;&gt;&lt;/span&gt;" style="rounded=1;whiteSpace=wrap;html=1;" vertex="1" parent="zCEMVVLhFSZG2-I51Na0-77">
          <mxGeometry x="6.25" y="67.5" width="77.5" height="40" as="geometry" />
        </mxCell>
        <mxCell id="zCEMVVLhFSZG2-I51Na0-80" value="" style="edgeStyle=orthogonalEdgeStyle;rounded=0;orthogonalLoop=1;jettySize=auto;html=1;entryX=0.543;entryY=-0.009;entryDx=0;entryDy=0;entryPerimeter=0;" edge="1" parent="zCEMVVLhFSZG2-I51Na0-77" source="zCEMVVLhFSZG2-I51Na0-78" target="zCEMVVLhFSZG2-I51Na0-79">
          <mxGeometry relative="1" as="geometry" />
        </mxCell>
        <mxCell id="zCEMVVLhFSZG2-I51Na0-81" value="บันทึกข้อมูล&lt;span style=&quot;font-size: medium; text-align: start;&quot;&gt;&lt;/span&gt;" style="rounded=1;whiteSpace=wrap;html=1;" vertex="1" parent="zCEMVVLhFSZG2-I51Na0-77">
          <mxGeometry x="6.25" y="137.5" width="77.5" height="40" as="geometry" />
        </mxCell>
        <mxCell id="zCEMVVLhFSZG2-I51Na0-82" value="" style="edgeStyle=orthogonalEdgeStyle;rounded=0;orthogonalLoop=1;jettySize=auto;html=1;" edge="1" parent="zCEMVVLhFSZG2-I51Na0-77" source="zCEMVVLhFSZG2-I51Na0-79" target="zCEMVVLhFSZG2-I51Na0-81">
          <mxGeometry relative="1" as="geometry" />
        </mxCell>
        <mxCell id="zCEMVVLhFSZG2-I51Na0-83" style="edgeStyle=orthogonalEdgeStyle;rounded=0;orthogonalLoop=1;jettySize=auto;html=1;exitX=1;exitY=0.5;exitDx=0;exitDy=0;" edge="1" parent="1" target="zCEMVVLhFSZG2-I51Na0-78" source="EjHG9Dcu0GjLnQgO5zlT-4">
          <mxGeometry relative="1" as="geometry">
            <mxPoint x="960" y="741" as="sourcePoint" />
          </mxGeometry>
        </mxCell>
        <mxCell id="zCEMVVLhFSZG2-I51Na0-84" value="ไม่" style="edgeLabel;html=1;align=center;verticalAlign=middle;resizable=0;points=[];" vertex="1" connectable="0" parent="zCEMVVLhFSZG2-I51Na0-83">
          <mxGeometry x="-0.0606" y="-2" relative="1" as="geometry">
            <mxPoint as="offset" />
          </mxGeometry>
        </mxCell>
      </root>
    </mxGraphModel>
  </diagram>
  <diagram id="rtC6u9QGfsvhOfXoJKU_" name="หน้า-4">
    <mxGraphModel dx="1276" dy="674" grid="1" gridSize="10" guides="1" tooltips="1" connect="1" arrows="1" fold="1" page="1" pageScale="1" pageWidth="827" pageHeight="1169" math="0" shadow="0">
      <root>
        <mxCell id="0" />
        <mxCell id="1" parent="0" />
        <mxCell id="h6VPQunG_JcqAhJNMBfT-99" value="เริ่ม" style="ellipse;whiteSpace=wrap;html=1;" vertex="1" parent="1">
          <mxGeometry x="70" y="40" width="80" height="40" as="geometry" />
        </mxCell>
        <mxCell id="h6VPQunG_JcqAhJNMBfT-100" value="ตรวจสอบสิทธิ์การใช้งาน" style="rounded=1;whiteSpace=wrap;html=1;" vertex="1" parent="1">
          <mxGeometry x="40" y="120" width="140" height="30" as="geometry" />
        </mxCell>
        <mxCell id="h6VPQunG_JcqAhJNMBfT-101" value="" style="edgeStyle=orthogonalEdgeStyle;rounded=0;orthogonalLoop=1;jettySize=auto;html=1;" edge="1" parent="1" source="h6VPQunG_JcqAhJNMBfT-99" target="h6VPQunG_JcqAhJNMBfT-100">
          <mxGeometry relative="1" as="geometry" />
        </mxCell>
        <mxCell id="h6VPQunG_JcqAhJNMBfT-102" value="มี ?" style="rhombus;whiteSpace=wrap;html=1;" vertex="1" parent="1">
          <mxGeometry x="80" y="180" width="60" height="60" as="geometry" />
        </mxCell>
        <mxCell id="h6VPQunG_JcqAhJNMBfT-103" value="" style="edgeStyle=orthogonalEdgeStyle;rounded=0;orthogonalLoop=1;jettySize=auto;html=1;" edge="1" parent="1" source="h6VPQunG_JcqAhJNMBfT-100" target="h6VPQunG_JcqAhJNMBfT-102">
          <mxGeometry relative="1" as="geometry" />
        </mxCell>
        <mxCell id="h6VPQunG_JcqAhJNMBfT-104" value="สิ้นสุด" style="ellipse;whiteSpace=wrap;html=1;" vertex="1" parent="1">
          <mxGeometry x="265" y="730" width="80" height="40" as="geometry" />
        </mxCell>
        <mxCell id="h6VPQunG_JcqAhJNMBfT-105" style="edgeStyle=orthogonalEdgeStyle;rounded=0;orthogonalLoop=1;jettySize=auto;html=1;entryX=0;entryY=0.5;entryDx=0;entryDy=0;" edge="1" parent="1" source="h6VPQunG_JcqAhJNMBfT-102" target="h6VPQunG_JcqAhJNMBfT-104">
          <mxGeometry relative="1" as="geometry">
            <Array as="points">
              <mxPoint x="110" y="750" />
            </Array>
          </mxGeometry>
        </mxCell>
        <mxCell id="h6VPQunG_JcqAhJNMBfT-106" value="ไม่" style="edgeLabel;html=1;align=center;verticalAlign=middle;resizable=0;points=[];" vertex="1" connectable="0" parent="h6VPQunG_JcqAhJNMBfT-105">
          <mxGeometry x="-0.8925" y="1" relative="1" as="geometry">
            <mxPoint as="offset" />
          </mxGeometry>
        </mxCell>
        <mxCell id="h6VPQunG_JcqAhJNMBfT-107" value="ตรวจสอบ Account &lt;br&gt;สถานะการใช้งาน" style="rounded=1;whiteSpace=wrap;html=1;" vertex="1" parent="1">
          <mxGeometry x="315.9999999999999" y="190" width="170" height="40" as="geometry" />
        </mxCell>
        <mxCell id="h6VPQunG_JcqAhJNMBfT-108" value="" style="edgeStyle=orthogonalEdgeStyle;rounded=0;orthogonalLoop=1;jettySize=auto;html=1;" edge="1" parent="1" source="h6VPQunG_JcqAhJNMBfT-102" target="h6VPQunG_JcqAhJNMBfT-107">
          <mxGeometry relative="1" as="geometry">
            <Array as="points">
              <mxPoint x="220" y="210" />
              <mxPoint x="220" y="210" />
            </Array>
          </mxGeometry>
        </mxCell>
        <mxCell id="h6VPQunG_JcqAhJNMBfT-109" value="ใช่" style="edgeLabel;html=1;align=center;verticalAlign=middle;resizable=0;points=[];" vertex="1" connectable="0" parent="h6VPQunG_JcqAhJNMBfT-108">
          <mxGeometry x="-0.7797" y="-1" relative="1" as="geometry">
            <mxPoint as="offset" />
          </mxGeometry>
        </mxCell>
        <mxCell id="h6VPQunG_JcqAhJNMBfT-110" value="" style="edgeStyle=orthogonalEdgeStyle;rounded=0;orthogonalLoop=1;jettySize=auto;html=1;" edge="1" parent="1" source="h6VPQunG_JcqAhJNMBfT-107" target="h6VPQunG_JcqAhJNMBfT-121">
          <mxGeometry relative="1" as="geometry" />
        </mxCell>
        <mxCell id="h6VPQunG_JcqAhJNMBfT-111" style="edgeStyle=orthogonalEdgeStyle;rounded=0;orthogonalLoop=1;jettySize=auto;html=1;entryX=0;entryY=0;entryDx=0;entryDy=0;" edge="1" parent="1" target="h6VPQunG_JcqAhJNMBfT-104">
          <mxGeometry relative="1" as="geometry">
            <Array as="points">
              <mxPoint x="248" y="730" />
              <mxPoint x="277" y="730" />
            </Array>
            <mxPoint x="200" y="720" as="sourcePoint" />
          </mxGeometry>
        </mxCell>
        <mxCell id="h6VPQunG_JcqAhJNMBfT-112" value="" style="ellipse;whiteSpace=wrap;html=1;aspect=fixed;" vertex="1" parent="1">
          <mxGeometry x="177.5" y="700" width="30" height="30" as="geometry" />
        </mxCell>
        <mxCell id="h6VPQunG_JcqAhJNMBfT-113" value="มี ?" style="rhombus;whiteSpace=wrap;html=1;" vertex="1" parent="1">
          <mxGeometry x="570" y="585" width="60" height="60" as="geometry" />
        </mxCell>
        <mxCell id="h6VPQunG_JcqAhJNMBfT-114" value="rerturn Error Code 031&lt;span style=&quot;font-size: medium; text-align: start;&quot;&gt;&lt;/span&gt;" style="rounded=1;whiteSpace=wrap;html=1;" vertex="1" parent="1">
          <mxGeometry x="361.45000000000005" y="665" width="77.5" height="40" as="geometry" />
        </mxCell>
        <mxCell id="h6VPQunG_JcqAhJNMBfT-115" style="edgeStyle=orthogonalEdgeStyle;rounded=0;orthogonalLoop=1;jettySize=auto;html=1;" edge="1" parent="1" source="h6VPQunG_JcqAhJNMBfT-116" target="h6VPQunG_JcqAhJNMBfT-104">
          <mxGeometry relative="1" as="geometry" />
        </mxCell>
        <mxCell id="h6VPQunG_JcqAhJNMBfT-116" value="" style="ellipse;whiteSpace=wrap;html=1;aspect=fixed;" vertex="1" parent="1">
          <mxGeometry x="386" y="735" width="30" height="30" as="geometry" />
        </mxCell>
        <mxCell id="h6VPQunG_JcqAhJNMBfT-117" style="edgeStyle=orthogonalEdgeStyle;rounded=0;orthogonalLoop=1;jettySize=auto;html=1;" edge="1" parent="1" source="h6VPQunG_JcqAhJNMBfT-114" target="h6VPQunG_JcqAhJNMBfT-116">
          <mxGeometry relative="1" as="geometry" />
        </mxCell>
        <mxCell id="h6VPQunG_JcqAhJNMBfT-118" style="edgeStyle=orthogonalEdgeStyle;rounded=0;orthogonalLoop=1;jettySize=auto;html=1;" edge="1" parent="1" source="h6VPQunG_JcqAhJNMBfT-113" target="h6VPQunG_JcqAhJNMBfT-197">
          <mxGeometry relative="1" as="geometry">
            <Array as="points">
              <mxPoint x="650" y="615" />
              <mxPoint x="650" y="445" />
            </Array>
            <mxPoint x="694" y="654" as="targetPoint" />
          </mxGeometry>
        </mxCell>
        <mxCell id="h6VPQunG_JcqAhJNMBfT-119" value="ไม่" style="edgeLabel;html=1;align=center;verticalAlign=middle;resizable=0;points=[];" vertex="1" connectable="0" parent="h6VPQunG_JcqAhJNMBfT-118">
          <mxGeometry x="-0.7968" y="2" relative="1" as="geometry">
            <mxPoint x="11" y="1" as="offset" />
          </mxGeometry>
        </mxCell>
        <mxCell id="h6VPQunG_JcqAhJNMBfT-120" style="edgeStyle=orthogonalEdgeStyle;rounded=0;orthogonalLoop=1;jettySize=auto;html=1;entryX=0;entryY=0.5;entryDx=0;entryDy=0;" edge="1" parent="1" source="h6VPQunG_JcqAhJNMBfT-144" target="h6VPQunG_JcqAhJNMBfT-112">
          <mxGeometry relative="1" as="geometry">
            <mxPoint x="146.25" y="363" as="sourcePoint" />
            <Array as="points">
              <mxPoint x="130" y="363" />
              <mxPoint x="130" y="720" />
              <mxPoint x="178" y="720" />
            </Array>
          </mxGeometry>
        </mxCell>
        <mxCell id="h6VPQunG_JcqAhJNMBfT-121" value="มีใน&lt;br&gt;ระบบ &lt;br&gt;?" style="rhombus;whiteSpace=wrap;html=1;" vertex="1" parent="1">
          <mxGeometry x="363.94999999999993" y="268" width="75" height="70" as="geometry" />
        </mxCell>
        <mxCell id="h6VPQunG_JcqAhJNMBfT-122" value="status&lt;br style=&quot;border-color: var(--border-color);&quot;&gt;= 1 ?" style="rhombus;whiteSpace=wrap;html=1;" vertex="1" parent="1">
          <mxGeometry x="371.44999999999993" y="388" width="60" height="60" as="geometry" />
        </mxCell>
        <mxCell id="h6VPQunG_JcqAhJNMBfT-123" value="" style="edgeStyle=orthogonalEdgeStyle;rounded=0;orthogonalLoop=1;jettySize=auto;html=1;" edge="1" parent="1" source="h6VPQunG_JcqAhJNMBfT-121" target="h6VPQunG_JcqAhJNMBfT-122">
          <mxGeometry relative="1" as="geometry" />
        </mxCell>
        <mxCell id="h6VPQunG_JcqAhJNMBfT-124" value="ใช่" style="edgeLabel;html=1;align=center;verticalAlign=middle;resizable=0;points=[];" vertex="1" connectable="0" parent="h6VPQunG_JcqAhJNMBfT-123">
          <mxGeometry x="-0.3254" y="2" relative="1" as="geometry">
            <mxPoint x="-2" as="offset" />
          </mxGeometry>
        </mxCell>
        <mxCell id="h6VPQunG_JcqAhJNMBfT-125" value="Locked&lt;br style=&quot;border-color: var(--border-color);&quot;&gt;= 1 ?&amp;nbsp;" style="rhombus;whiteSpace=wrap;html=1;" vertex="1" parent="1">
          <mxGeometry x="371.44999999999993" y="518" width="60" height="60" as="geometry" />
        </mxCell>
        <mxCell id="h6VPQunG_JcqAhJNMBfT-126" value="" style="edgeStyle=orthogonalEdgeStyle;rounded=0;orthogonalLoop=1;jettySize=auto;html=1;" edge="1" parent="1" source="h6VPQunG_JcqAhJNMBfT-122" target="h6VPQunG_JcqAhJNMBfT-125">
          <mxGeometry relative="1" as="geometry" />
        </mxCell>
        <mxCell id="h6VPQunG_JcqAhJNMBfT-127" value="ไม่" style="edgeLabel;html=1;align=center;verticalAlign=middle;resizable=0;points=[];" vertex="1" connectable="0" parent="h6VPQunG_JcqAhJNMBfT-126">
          <mxGeometry x="-0.3745" relative="1" as="geometry">
            <mxPoint as="offset" />
          </mxGeometry>
        </mxCell>
        <mxCell id="h6VPQunG_JcqAhJNMBfT-128" style="edgeStyle=orthogonalEdgeStyle;rounded=0;orthogonalLoop=1;jettySize=auto;html=1;" edge="1" parent="1" source="h6VPQunG_JcqAhJNMBfT-121" target="h6VPQunG_JcqAhJNMBfT-136">
          <mxGeometry relative="1" as="geometry">
            <mxPoint x="297.6" y="303" as="targetPoint" />
          </mxGeometry>
        </mxCell>
        <mxCell id="h6VPQunG_JcqAhJNMBfT-129" value="ไม่" style="edgeLabel;html=1;align=center;verticalAlign=middle;resizable=0;points=[];" vertex="1" connectable="0" parent="h6VPQunG_JcqAhJNMBfT-128">
          <mxGeometry x="-0.6573" y="2" relative="1" as="geometry">
            <mxPoint as="offset" />
          </mxGeometry>
        </mxCell>
        <mxCell id="h6VPQunG_JcqAhJNMBfT-130" style="edgeStyle=orthogonalEdgeStyle;rounded=0;orthogonalLoop=1;jettySize=auto;html=1;entryX=0.5;entryY=0;entryDx=0;entryDy=0;" edge="1" parent="1" source="h6VPQunG_JcqAhJNMBfT-131" target="h6VPQunG_JcqAhJNMBfT-112">
          <mxGeometry relative="1" as="geometry" />
        </mxCell>
        <mxCell id="h6VPQunG_JcqAhJNMBfT-131" value="rerturn Error Code&amp;nbsp;011&lt;span style=&quot;font-size: medium; text-align: start;&quot;&gt;&lt;/span&gt;" style="rounded=1;whiteSpace=wrap;html=1;" vertex="1" parent="1">
          <mxGeometry x="247.5" y="640" width="77.5" height="40" as="geometry" />
        </mxCell>
        <mxCell id="h6VPQunG_JcqAhJNMBfT-132" value="ตรวจสอบว่า positionCode &lt;br&gt;มีในฐานข้อมูลไหม" style="rounded=1;whiteSpace=wrap;html=1;" vertex="1" parent="1">
          <mxGeometry x="463.1" y="517" width="123.65" height="62" as="geometry" />
        </mxCell>
        <mxCell id="h6VPQunG_JcqAhJNMBfT-133" value="" style="edgeStyle=orthogonalEdgeStyle;rounded=0;orthogonalLoop=1;jettySize=auto;html=1;" edge="1" parent="1" source="h6VPQunG_JcqAhJNMBfT-125" target="h6VPQunG_JcqAhJNMBfT-132">
          <mxGeometry relative="1" as="geometry" />
        </mxCell>
        <mxCell id="h6VPQunG_JcqAhJNMBfT-134" value="ไม่" style="edgeLabel;html=1;align=center;verticalAlign=middle;resizable=0;points=[];" vertex="1" connectable="0" parent="h6VPQunG_JcqAhJNMBfT-133">
          <mxGeometry x="0.1426" y="-1" relative="1" as="geometry">
            <mxPoint as="offset" />
          </mxGeometry>
        </mxCell>
        <mxCell id="h6VPQunG_JcqAhJNMBfT-135" value="" style="edgeStyle=orthogonalEdgeStyle;rounded=0;orthogonalLoop=1;jettySize=auto;html=1;" edge="1" parent="1" source="h6VPQunG_JcqAhJNMBfT-132" target="h6VPQunG_JcqAhJNMBfT-113">
          <mxGeometry relative="1" as="geometry">
            <Array as="points">
              <mxPoint x="600" y="550" />
            </Array>
          </mxGeometry>
        </mxCell>
        <mxCell id="h6VPQunG_JcqAhJNMBfT-136" value="สร้างข้อมูล ActivityLog&lt;span style=&quot;font-size: medium; text-align: start;&quot;&gt;&lt;/span&gt;" style="rounded=1;whiteSpace=wrap;html=1;" vertex="1" parent="1">
          <mxGeometry x="247.5" y="283" width="77.5" height="40" as="geometry" />
        </mxCell>
        <mxCell id="h6VPQunG_JcqAhJNMBfT-137" style="edgeStyle=orthogonalEdgeStyle;rounded=0;orthogonalLoop=1;jettySize=auto;html=1;entryX=0;entryY=0;entryDx=0;entryDy=0;" edge="1" parent="1" source="h6VPQunG_JcqAhJNMBfT-138" target="h6VPQunG_JcqAhJNMBfT-112">
          <mxGeometry relative="1" as="geometry">
            <Array as="points">
              <mxPoint x="140" y="480" />
              <mxPoint x="140" y="704" />
              <mxPoint x="182" y="704" />
            </Array>
          </mxGeometry>
        </mxCell>
        <mxCell id="h6VPQunG_JcqAhJNMBfT-138" value="rerturn Error Code&amp;nbsp;004&lt;span style=&quot;font-size: medium; text-align: start;&quot;&gt;&lt;/span&gt;" style="rounded=1;whiteSpace=wrap;html=1;" vertex="1" parent="1">
          <mxGeometry x="146.25" y="460" width="77.5" height="40" as="geometry" />
        </mxCell>
        <mxCell id="h6VPQunG_JcqAhJNMBfT-139" value="สร้างข้อมูล ActivityLog&lt;span style=&quot;font-size: medium; text-align: start;&quot;&gt;&lt;/span&gt;" style="rounded=1;whiteSpace=wrap;html=1;" vertex="1" parent="1">
          <mxGeometry x="247.5" y="398" width="77.5" height="40" as="geometry" />
        </mxCell>
        <mxCell id="h6VPQunG_JcqAhJNMBfT-140" value="" style="edgeStyle=orthogonalEdgeStyle;rounded=0;orthogonalLoop=1;jettySize=auto;html=1;" edge="1" parent="1" source="h6VPQunG_JcqAhJNMBfT-122" target="h6VPQunG_JcqAhJNMBfT-139">
          <mxGeometry relative="1" as="geometry" />
        </mxCell>
        <mxCell id="h6VPQunG_JcqAhJNMBfT-141" value="ใช่" style="edgeLabel;html=1;align=center;verticalAlign=middle;resizable=0;points=[];" vertex="1" connectable="0" parent="h6VPQunG_JcqAhJNMBfT-140">
          <mxGeometry x="-0.1729" relative="1" as="geometry">
            <mxPoint as="offset" />
          </mxGeometry>
        </mxCell>
        <mxCell id="h6VPQunG_JcqAhJNMBfT-142" value="บันทึกข้อมูล&lt;span style=&quot;font-size: medium; text-align: start;&quot;&gt;&lt;/span&gt;" style="rounded=1;whiteSpace=wrap;html=1;" vertex="1" parent="1">
          <mxGeometry x="150" y="283" width="77.5" height="40" as="geometry" />
        </mxCell>
        <mxCell id="h6VPQunG_JcqAhJNMBfT-143" value="" style="edgeStyle=orthogonalEdgeStyle;rounded=0;orthogonalLoop=1;jettySize=auto;html=1;" edge="1" parent="1" source="h6VPQunG_JcqAhJNMBfT-136" target="h6VPQunG_JcqAhJNMBfT-142">
          <mxGeometry relative="1" as="geometry" />
        </mxCell>
        <mxCell id="h6VPQunG_JcqAhJNMBfT-144" value="rerturn Error Code&amp;nbsp;001&lt;span style=&quot;font-size: medium; text-align: start;&quot;&gt;&lt;/span&gt;" style="rounded=1;whiteSpace=wrap;html=1;" vertex="1" parent="1">
          <mxGeometry x="150" y="348" width="77.5" height="40" as="geometry" />
        </mxCell>
        <mxCell id="h6VPQunG_JcqAhJNMBfT-145" value="" style="edgeStyle=orthogonalEdgeStyle;rounded=0;orthogonalLoop=1;jettySize=auto;html=1;" edge="1" parent="1" source="h6VPQunG_JcqAhJNMBfT-142" target="h6VPQunG_JcqAhJNMBfT-144">
          <mxGeometry relative="1" as="geometry" />
        </mxCell>
        <mxCell id="h6VPQunG_JcqAhJNMBfT-146" value="" style="edgeStyle=orthogonalEdgeStyle;rounded=0;orthogonalLoop=1;jettySize=auto;html=1;" edge="1" parent="1" source="h6VPQunG_JcqAhJNMBfT-147" target="h6VPQunG_JcqAhJNMBfT-138">
          <mxGeometry relative="1" as="geometry" />
        </mxCell>
        <mxCell id="h6VPQunG_JcqAhJNMBfT-147" value="บันทึกข้อมูล&lt;span style=&quot;font-size: medium; text-align: start;&quot;&gt;&lt;/span&gt;" style="rounded=1;whiteSpace=wrap;html=1;" vertex="1" parent="1">
          <mxGeometry x="247.5" y="460" width="77.5" height="40" as="geometry" />
        </mxCell>
        <mxCell id="h6VPQunG_JcqAhJNMBfT-148" value="" style="edgeStyle=orthogonalEdgeStyle;rounded=0;orthogonalLoop=1;jettySize=auto;html=1;" edge="1" parent="1" source="h6VPQunG_JcqAhJNMBfT-139" target="h6VPQunG_JcqAhJNMBfT-147">
          <mxGeometry relative="1" as="geometry" />
        </mxCell>
        <mxCell id="h6VPQunG_JcqAhJNMBfT-149" value="สร้างข้อมูล ActivityLog&lt;span style=&quot;font-size: medium; text-align: start;&quot;&gt;&lt;/span&gt;" style="rounded=1;whiteSpace=wrap;html=1;" vertex="1" parent="1">
          <mxGeometry x="247.5" y="528" width="77.5" height="40" as="geometry" />
        </mxCell>
        <mxCell id="h6VPQunG_JcqAhJNMBfT-150" value="" style="edgeStyle=orthogonalEdgeStyle;rounded=0;orthogonalLoop=1;jettySize=auto;html=1;" edge="1" parent="1" source="h6VPQunG_JcqAhJNMBfT-125" target="h6VPQunG_JcqAhJNMBfT-149">
          <mxGeometry relative="1" as="geometry" />
        </mxCell>
        <mxCell id="h6VPQunG_JcqAhJNMBfT-151" value="ใช่" style="edgeLabel;html=1;align=center;verticalAlign=middle;resizable=0;points=[];" vertex="1" connectable="0" parent="h6VPQunG_JcqAhJNMBfT-150">
          <mxGeometry x="-0.1659" y="-1" relative="1" as="geometry">
            <mxPoint as="offset" />
          </mxGeometry>
        </mxCell>
        <mxCell id="h6VPQunG_JcqAhJNMBfT-152" value="" style="edgeStyle=orthogonalEdgeStyle;rounded=0;orthogonalLoop=1;jettySize=auto;html=1;" edge="1" parent="1" source="h6VPQunG_JcqAhJNMBfT-153" target="h6VPQunG_JcqAhJNMBfT-131">
          <mxGeometry relative="1" as="geometry" />
        </mxCell>
        <mxCell id="h6VPQunG_JcqAhJNMBfT-153" value="บันทึกข้อมูล&lt;span style=&quot;font-size: medium; text-align: start;&quot;&gt;&lt;/span&gt;" style="rounded=1;whiteSpace=wrap;html=1;" vertex="1" parent="1">
          <mxGeometry x="247.5" y="585" width="77.5" height="40" as="geometry" />
        </mxCell>
        <mxCell id="h6VPQunG_JcqAhJNMBfT-154" value="สร้างข้อมูล ActivityLog&lt;span style=&quot;font-size: medium; text-align: start;&quot;&gt;&lt;/span&gt;" style="rounded=1;whiteSpace=wrap;html=1;" vertex="1" parent="1">
          <mxGeometry x="463.1" y="595" width="77.5" height="40" as="geometry" />
        </mxCell>
        <mxCell id="h6VPQunG_JcqAhJNMBfT-155" value="" style="edgeStyle=orthogonalEdgeStyle;rounded=0;orthogonalLoop=1;jettySize=auto;html=1;" edge="1" parent="1" source="h6VPQunG_JcqAhJNMBfT-149" target="h6VPQunG_JcqAhJNMBfT-153">
          <mxGeometry relative="1" as="geometry" />
        </mxCell>
        <mxCell id="h6VPQunG_JcqAhJNMBfT-156" style="edgeStyle=orthogonalEdgeStyle;rounded=0;orthogonalLoop=1;jettySize=auto;html=1;entryX=0.5;entryY=0;entryDx=0;entryDy=0;" edge="1" parent="1" source="h6VPQunG_JcqAhJNMBfT-157" target="h6VPQunG_JcqAhJNMBfT-114">
          <mxGeometry relative="1" as="geometry" />
        </mxCell>
        <mxCell id="h6VPQunG_JcqAhJNMBfT-157" value="บันทึกข้อมูล&lt;span style=&quot;font-size: medium; text-align: start;&quot;&gt;&lt;/span&gt;" style="rounded=1;whiteSpace=wrap;html=1;" vertex="1" parent="1">
          <mxGeometry x="361.45000000000005" y="595" width="77.5" height="40" as="geometry" />
        </mxCell>
        <mxCell id="h6VPQunG_JcqAhJNMBfT-158" value="ใช่" style="edgeStyle=orthogonalEdgeStyle;rounded=0;orthogonalLoop=1;jettySize=auto;html=1;" edge="1" parent="1" source="h6VPQunG_JcqAhJNMBfT-113" target="h6VPQunG_JcqAhJNMBfT-154">
          <mxGeometry relative="1" as="geometry" />
        </mxCell>
        <mxCell id="h6VPQunG_JcqAhJNMBfT-159" value="" style="edgeStyle=orthogonalEdgeStyle;rounded=0;orthogonalLoop=1;jettySize=auto;html=1;" edge="1" parent="1" source="h6VPQunG_JcqAhJNMBfT-154" target="h6VPQunG_JcqAhJNMBfT-157">
          <mxGeometry relative="1" as="geometry" />
        </mxCell>
        <mxCell id="h6VPQunG_JcqAhJNMBfT-160" value="Position Under?" style="rhombus;whiteSpace=wrap;html=1;" vertex="1" parent="1">
          <mxGeometry x="665" y="655" width="60" height="60" as="geometry" />
        </mxCell>
        <mxCell id="h6VPQunG_JcqAhJNMBfT-161" value="ใช่" style="edgeStyle=orthogonalEdgeStyle;rounded=0;orthogonalLoop=1;jettySize=auto;html=1;entryX=0.5;entryY=0;entryDx=0;entryDy=0;" edge="1" parent="1" source="h6VPQunG_JcqAhJNMBfT-160" target="h6VPQunG_JcqAhJNMBfT-163">
          <mxGeometry relative="1" as="geometry">
            <mxPoint x="695.0050000000001" y="750" as="targetPoint" />
          </mxGeometry>
        </mxCell>
        <mxCell id="h6VPQunG_JcqAhJNMBfT-162" style="edgeStyle=orthogonalEdgeStyle;rounded=0;orthogonalLoop=1;jettySize=auto;html=1;" edge="1" parent="1" source="h6VPQunG_JcqAhJNMBfT-177" target="h6VPQunG_JcqAhJNMBfT-116">
          <mxGeometry relative="1" as="geometry">
            <Array as="points">
              <mxPoint x="440" y="1020" />
              <mxPoint x="440" y="761" />
            </Array>
          </mxGeometry>
        </mxCell>
        <mxCell id="h6VPQunG_JcqAhJNMBfT-163" value="positionUnder มีในฐานข้อมูลไหม" style="rounded=1;whiteSpace=wrap;html=1;" vertex="1" parent="1">
          <mxGeometry x="508.75" y="705" width="96.25" height="42.5" as="geometry" />
        </mxCell>
        <mxCell id="h6VPQunG_JcqAhJNMBfT-164" value="มี ?" style="rhombus;whiteSpace=wrap;html=1;" vertex="1" parent="1">
          <mxGeometry x="526.75" y="780" width="60" height="60" as="geometry" />
        </mxCell>
        <mxCell id="h6VPQunG_JcqAhJNMBfT-165" value="" style="edgeStyle=orthogonalEdgeStyle;rounded=0;orthogonalLoop=1;jettySize=auto;html=1;" edge="1" parent="1" source="h6VPQunG_JcqAhJNMBfT-163" target="h6VPQunG_JcqAhJNMBfT-164">
          <mxGeometry relative="1" as="geometry" />
        </mxCell>
        <mxCell id="h6VPQunG_JcqAhJNMBfT-166" style="edgeStyle=orthogonalEdgeStyle;rounded=0;orthogonalLoop=1;jettySize=auto;html=1;entryX=0.5;entryY=0;entryDx=0;entryDy=0;" edge="1" parent="1" source="h6VPQunG_JcqAhJNMBfT-164" target="h6VPQunG_JcqAhJNMBfT-174">
          <mxGeometry relative="1" as="geometry">
            <Array as="points">
              <mxPoint x="489" y="810" />
              <mxPoint x="489" y="860" />
            </Array>
          </mxGeometry>
        </mxCell>
        <mxCell id="h6VPQunG_JcqAhJNMBfT-167" value="ไม่" style="edgeLabel;html=1;align=center;verticalAlign=middle;resizable=0;points=[];" vertex="1" connectable="0" parent="h6VPQunG_JcqAhJNMBfT-166">
          <mxGeometry x="-0.2859" relative="1" as="geometry">
            <mxPoint as="offset" />
          </mxGeometry>
        </mxCell>
        <mxCell id="h6VPQunG_JcqAhJNMBfT-168" style="edgeStyle=orthogonalEdgeStyle;rounded=0;orthogonalLoop=1;jettySize=auto;html=1;entryX=0;entryY=0.5;entryDx=0;entryDy=0;" edge="1" parent="1" source="h6VPQunG_JcqAhJNMBfT-170" target="h6VPQunG_JcqAhJNMBfT-190">
          <mxGeometry relative="1" as="geometry">
            <Array as="points">
              <mxPoint x="705" y="870" />
              <mxPoint x="705" y="751" />
            </Array>
          </mxGeometry>
        </mxCell>
        <mxCell id="h6VPQunG_JcqAhJNMBfT-169" value="ไม่" style="edgeLabel;html=1;align=center;verticalAlign=middle;resizable=0;points=[];" vertex="1" connectable="0" parent="h6VPQunG_JcqAhJNMBfT-168">
          <mxGeometry x="-0.2765" relative="1" as="geometry">
            <mxPoint as="offset" />
          </mxGeometry>
        </mxCell>
        <mxCell id="h6VPQunG_JcqAhJNMBfT-170" value="อ้างอิง&lt;br&gt;ตัวเอง ?" style="rhombus;whiteSpace=wrap;html=1;" vertex="1" parent="1">
          <mxGeometry x="620" y="840" width="70" height="60" as="geometry" />
        </mxCell>
        <mxCell id="h6VPQunG_JcqAhJNMBfT-171" value="" style="edgeStyle=orthogonalEdgeStyle;rounded=0;orthogonalLoop=1;jettySize=auto;html=1;entryX=0.485;entryY=-0.01;entryDx=0;entryDy=0;entryPerimeter=0;" edge="1" parent="1" source="h6VPQunG_JcqAhJNMBfT-164" target="h6VPQunG_JcqAhJNMBfT-170">
          <mxGeometry relative="1" as="geometry">
            <mxPoint x="685" y="890" as="targetPoint" />
            <Array as="points">
              <mxPoint x="654" y="810" />
            </Array>
          </mxGeometry>
        </mxCell>
        <mxCell id="h6VPQunG_JcqAhJNMBfT-172" value="ใช่" style="edgeLabel;html=1;align=center;verticalAlign=middle;resizable=0;points=[];" vertex="1" connectable="0" parent="h6VPQunG_JcqAhJNMBfT-171">
          <mxGeometry x="-0.6759" y="1" relative="1" as="geometry">
            <mxPoint as="offset" />
          </mxGeometry>
        </mxCell>
        <mxCell id="h6VPQunG_JcqAhJNMBfT-173" value="" style="group" vertex="1" connectable="0" parent="1">
          <mxGeometry x="450" y="880" width="78.12" height="160" as="geometry" />
        </mxCell>
        <mxCell id="h6VPQunG_JcqAhJNMBfT-174" value="สร้างข้อมูล ActivityLog&lt;span style=&quot;font-size: medium; text-align: start;&quot;&gt;&lt;/span&gt;" style="rounded=1;whiteSpace=wrap;html=1;" vertex="1" parent="h6VPQunG_JcqAhJNMBfT-173">
          <mxGeometry width="77.5" height="40" as="geometry" />
        </mxCell>
        <mxCell id="h6VPQunG_JcqAhJNMBfT-175" value="บันทึกข้อมูล&lt;span style=&quot;font-size: medium; text-align: start;&quot;&gt;&lt;/span&gt;" style="rounded=1;whiteSpace=wrap;html=1;" vertex="1" parent="h6VPQunG_JcqAhJNMBfT-173">
          <mxGeometry x="0.6200000000000045" y="60" width="77.5" height="40" as="geometry" />
        </mxCell>
        <mxCell id="h6VPQunG_JcqAhJNMBfT-176" value="" style="edgeStyle=orthogonalEdgeStyle;rounded=0;orthogonalLoop=1;jettySize=auto;html=1;" edge="1" parent="h6VPQunG_JcqAhJNMBfT-173" source="h6VPQunG_JcqAhJNMBfT-174" target="h6VPQunG_JcqAhJNMBfT-175">
          <mxGeometry relative="1" as="geometry" />
        </mxCell>
        <mxCell id="h6VPQunG_JcqAhJNMBfT-177" value="rerturn Error Code 045&lt;span style=&quot;font-size: medium; text-align: start;&quot;&gt;&lt;/span&gt;" style="rounded=1;whiteSpace=wrap;html=1;" vertex="1" parent="h6VPQunG_JcqAhJNMBfT-173">
          <mxGeometry y="120" width="77.5" height="40" as="geometry" />
        </mxCell>
        <mxCell id="h6VPQunG_JcqAhJNMBfT-178" value="" style="edgeStyle=orthogonalEdgeStyle;rounded=0;orthogonalLoop=1;jettySize=auto;html=1;" edge="1" parent="h6VPQunG_JcqAhJNMBfT-173" source="h6VPQunG_JcqAhJNMBfT-175" target="h6VPQunG_JcqAhJNMBfT-177">
          <mxGeometry relative="1" as="geometry" />
        </mxCell>
        <mxCell id="h6VPQunG_JcqAhJNMBfT-179" value="" style="group" vertex="1" connectable="0" parent="1">
          <mxGeometry x="550" y="930" width="78.11999999999989" height="160" as="geometry" />
        </mxCell>
        <mxCell id="h6VPQunG_JcqAhJNMBfT-180" value="สร้างข้อมูล ActivityLog&lt;span style=&quot;font-size: medium; text-align: start;&quot;&gt;&lt;/span&gt;" style="rounded=1;whiteSpace=wrap;html=1;" vertex="1" parent="h6VPQunG_JcqAhJNMBfT-179">
          <mxGeometry width="77.5" height="40" as="geometry" />
        </mxCell>
        <mxCell id="h6VPQunG_JcqAhJNMBfT-181" value="บันทึกข้อมูล&lt;span style=&quot;font-size: medium; text-align: start;&quot;&gt;&lt;/span&gt;" style="rounded=1;whiteSpace=wrap;html=1;" vertex="1" parent="h6VPQunG_JcqAhJNMBfT-179">
          <mxGeometry x="0.6199999999998909" y="60" width="77.5" height="40" as="geometry" />
        </mxCell>
        <mxCell id="h6VPQunG_JcqAhJNMBfT-182" value="" style="edgeStyle=orthogonalEdgeStyle;rounded=0;orthogonalLoop=1;jettySize=auto;html=1;" edge="1" parent="h6VPQunG_JcqAhJNMBfT-179" source="h6VPQunG_JcqAhJNMBfT-180" target="h6VPQunG_JcqAhJNMBfT-181">
          <mxGeometry relative="1" as="geometry" />
        </mxCell>
        <mxCell id="h6VPQunG_JcqAhJNMBfT-183" value="rerturn Error Code 046&lt;span style=&quot;font-size: medium; text-align: start;&quot;&gt;&lt;/span&gt;" style="rounded=1;whiteSpace=wrap;html=1;" vertex="1" parent="h6VPQunG_JcqAhJNMBfT-179">
          <mxGeometry y="120" width="77.5" height="40" as="geometry" />
        </mxCell>
        <mxCell id="h6VPQunG_JcqAhJNMBfT-184" value="" style="edgeStyle=orthogonalEdgeStyle;rounded=0;orthogonalLoop=1;jettySize=auto;html=1;" edge="1" parent="h6VPQunG_JcqAhJNMBfT-179" source="h6VPQunG_JcqAhJNMBfT-181" target="h6VPQunG_JcqAhJNMBfT-183">
          <mxGeometry relative="1" as="geometry" />
        </mxCell>
        <mxCell id="h6VPQunG_JcqAhJNMBfT-185" style="edgeStyle=orthogonalEdgeStyle;rounded=0;orthogonalLoop=1;jettySize=auto;html=1;entryX=0.5;entryY=0;entryDx=0;entryDy=0;" edge="1" parent="1" source="h6VPQunG_JcqAhJNMBfT-170" target="h6VPQunG_JcqAhJNMBfT-180">
          <mxGeometry relative="1" as="geometry">
            <Array as="points">
              <mxPoint x="590" y="870" />
              <mxPoint x="590" y="920" />
              <mxPoint x="589" y="920" />
            </Array>
          </mxGeometry>
        </mxCell>
        <mxCell id="h6VPQunG_JcqAhJNMBfT-186" value="ใช่" style="edgeLabel;html=1;align=center;verticalAlign=middle;resizable=0;points=[];" vertex="1" connectable="0" parent="h6VPQunG_JcqAhJNMBfT-185">
          <mxGeometry x="-0.6955" y="-1" relative="1" as="geometry">
            <mxPoint as="offset" />
          </mxGeometry>
        </mxCell>
        <mxCell id="h6VPQunG_JcqAhJNMBfT-187" style="edgeStyle=orthogonalEdgeStyle;rounded=0;orthogonalLoop=1;jettySize=auto;html=1;entryX=0.715;entryY=0.885;entryDx=0;entryDy=0;entryPerimeter=0;" edge="1" parent="1" source="h6VPQunG_JcqAhJNMBfT-183" target="h6VPQunG_JcqAhJNMBfT-116">
          <mxGeometry relative="1" as="geometry" />
        </mxCell>
        <mxCell id="h6VPQunG_JcqAhJNMBfT-188" style="edgeStyle=orthogonalEdgeStyle;rounded=0;orthogonalLoop=1;jettySize=auto;html=1;entryX=0.274;entryY=0.975;entryDx=0;entryDy=0;entryPerimeter=0;" edge="1" parent="1" source="h6VPQunG_JcqAhJNMBfT-193" target="h6VPQunG_JcqAhJNMBfT-116">
          <mxGeometry relative="1" as="geometry">
            <mxPoint x="740" y="960" as="targetPoint" />
            <Array as="points">
              <mxPoint x="690" y="888" />
              <mxPoint x="690" y="1110" />
              <mxPoint x="394" y="1110" />
            </Array>
          </mxGeometry>
        </mxCell>
        <mxCell id="h6VPQunG_JcqAhJNMBfT-189" value="" style="group" vertex="1" connectable="0" parent="1">
          <mxGeometry x="708.75" y="730" width="96.25" height="177.5" as="geometry" />
        </mxCell>
        <mxCell id="h6VPQunG_JcqAhJNMBfT-190" value="สร้างข้อมูลตำแหน่ง&lt;span style=&quot;font-size: medium; text-align: start;&quot;&gt;&lt;/span&gt;" style="rounded=1;whiteSpace=wrap;html=1;" vertex="1" parent="h6VPQunG_JcqAhJNMBfT-189">
          <mxGeometry width="96.25" height="42.5" as="geometry" />
        </mxCell>
        <mxCell id="h6VPQunG_JcqAhJNMBfT-191" value="สร้างข้อมูล ActivityLog&lt;span style=&quot;font-size: medium; text-align: start;&quot;&gt;&lt;/span&gt;" style="rounded=1;whiteSpace=wrap;html=1;" vertex="1" parent="h6VPQunG_JcqAhJNMBfT-189">
          <mxGeometry x="6.25" y="67.5" width="77.5" height="40" as="geometry" />
        </mxCell>
        <mxCell id="h6VPQunG_JcqAhJNMBfT-192" value="" style="edgeStyle=orthogonalEdgeStyle;rounded=0;orthogonalLoop=1;jettySize=auto;html=1;entryX=0.543;entryY=-0.009;entryDx=0;entryDy=0;entryPerimeter=0;" edge="1" parent="h6VPQunG_JcqAhJNMBfT-189" source="h6VPQunG_JcqAhJNMBfT-190" target="h6VPQunG_JcqAhJNMBfT-191">
          <mxGeometry relative="1" as="geometry" />
        </mxCell>
        <mxCell id="h6VPQunG_JcqAhJNMBfT-193" value="บันทึกข้อมูล&lt;span style=&quot;font-size: medium; text-align: start;&quot;&gt;&lt;/span&gt;" style="rounded=1;whiteSpace=wrap;html=1;" vertex="1" parent="h6VPQunG_JcqAhJNMBfT-189">
          <mxGeometry x="6.25" y="137.5" width="77.5" height="40" as="geometry" />
        </mxCell>
        <mxCell id="h6VPQunG_JcqAhJNMBfT-194" value="" style="edgeStyle=orthogonalEdgeStyle;rounded=0;orthogonalLoop=1;jettySize=auto;html=1;" edge="1" parent="h6VPQunG_JcqAhJNMBfT-189" source="h6VPQunG_JcqAhJNMBfT-191" target="h6VPQunG_JcqAhJNMBfT-193">
          <mxGeometry relative="1" as="geometry" />
        </mxCell>
        <mxCell id="h6VPQunG_JcqAhJNMBfT-195" style="edgeStyle=orthogonalEdgeStyle;rounded=0;orthogonalLoop=1;jettySize=auto;html=1;exitX=1;exitY=0.5;exitDx=0;exitDy=0;" edge="1" parent="1" source="h6VPQunG_JcqAhJNMBfT-160" target="h6VPQunG_JcqAhJNMBfT-190">
          <mxGeometry relative="1" as="geometry">
            <mxPoint x="970" y="751" as="sourcePoint" />
          </mxGeometry>
        </mxCell>
        <mxCell id="h6VPQunG_JcqAhJNMBfT-196" value="ไม่" style="edgeLabel;html=1;align=center;verticalAlign=middle;resizable=0;points=[];" vertex="1" connectable="0" parent="h6VPQunG_JcqAhJNMBfT-195">
          <mxGeometry x="-0.0606" y="-2" relative="1" as="geometry">
            <mxPoint as="offset" />
          </mxGeometry>
        </mxCell>
        <mxCell id="h6VPQunG_JcqAhJNMBfT-197" value="ตรวจสอบสถานะ status ที่แก้ไขเป็น 0 หรือ 1 ไหม&lt;span style=&quot;font-size: medium; text-align: start;&quot;&gt;&lt;/span&gt;" style="rounded=1;whiteSpace=wrap;html=1;" vertex="1" parent="1">
          <mxGeometry x="675.0000000000002" y="423" width="127.5" height="50" as="geometry" />
        </mxCell>
        <mxCell id="h6VPQunG_JcqAhJNMBfT-199" value="" style="edgeStyle=orthogonalEdgeStyle;rounded=0;orthogonalLoop=1;jettySize=auto;html=1;" edge="1" parent="1" source="h6VPQunG_JcqAhJNMBfT-197" target="h6VPQunG_JcqAhJNMBfT-204">
          <mxGeometry relative="1" as="geometry" />
        </mxCell>
        <mxCell id="h6VPQunG_JcqAhJNMBfT-202" style="edgeStyle=orthogonalEdgeStyle;rounded=0;orthogonalLoop=1;jettySize=auto;html=1;exitX=0;exitY=0.5;exitDx=0;exitDy=0;" edge="1" parent="1" source="h6VPQunG_JcqAhJNMBfT-204">
          <mxGeometry relative="1" as="geometry">
            <Array as="points">
              <mxPoint x="695" y="530" />
            </Array>
            <mxPoint x="713.75" y="525" as="sourcePoint" />
            <mxPoint x="695" y="655" as="targetPoint" />
          </mxGeometry>
        </mxCell>
        <mxCell id="h6VPQunG_JcqAhJNMBfT-203" value="ใช่" style="edgeLabel;html=1;align=center;verticalAlign=middle;resizable=0;points=[];" vertex="1" connectable="0" parent="h6VPQunG_JcqAhJNMBfT-202">
          <mxGeometry x="-0.4774" y="2" relative="1" as="geometry">
            <mxPoint as="offset" />
          </mxGeometry>
        </mxCell>
        <mxCell id="h6VPQunG_JcqAhJNMBfT-213" style="edgeStyle=orthogonalEdgeStyle;rounded=0;orthogonalLoop=1;jettySize=auto;html=1;entryX=1;entryY=0.5;entryDx=0;entryDy=0;" edge="1" parent="1" source="h6VPQunG_JcqAhJNMBfT-204" target="h6VPQunG_JcqAhJNMBfT-209">
          <mxGeometry relative="1" as="geometry">
            <Array as="points">
              <mxPoint x="810" y="530" />
              <mxPoint x="810" y="970" />
            </Array>
          </mxGeometry>
        </mxCell>
        <mxCell id="h6VPQunG_JcqAhJNMBfT-214" value="ไม่" style="edgeLabel;html=1;align=center;verticalAlign=middle;resizable=0;points=[];" vertex="1" connectable="0" parent="h6VPQunG_JcqAhJNMBfT-213">
          <mxGeometry x="-0.9307" y="1" relative="1" as="geometry">
            <mxPoint as="offset" />
          </mxGeometry>
        </mxCell>
        <mxCell id="h6VPQunG_JcqAhJNMBfT-204" value="ใช่?" style="rhombus;whiteSpace=wrap;html=1;" vertex="1" parent="1">
          <mxGeometry x="708.75" y="500" width="60" height="60" as="geometry" />
        </mxCell>
        <mxCell id="h6VPQunG_JcqAhJNMBfT-216" value="" style="edgeStyle=orthogonalEdgeStyle;rounded=0;orthogonalLoop=1;jettySize=auto;html=1;" edge="1" parent="1" source="h6VPQunG_JcqAhJNMBfT-209" target="h6VPQunG_JcqAhJNMBfT-210">
          <mxGeometry relative="1" as="geometry" />
        </mxCell>
        <mxCell id="h6VPQunG_JcqAhJNMBfT-209" value="สร้างข้อมูล ActivityLog&lt;span style=&quot;font-size: medium; text-align: start;&quot;&gt;&lt;/span&gt;" style="rounded=1;whiteSpace=wrap;html=1;" vertex="1" parent="1">
          <mxGeometry x="725" y="950" width="77.5" height="40" as="geometry" />
        </mxCell>
        <mxCell id="h6VPQunG_JcqAhJNMBfT-217" style="edgeStyle=orthogonalEdgeStyle;rounded=0;orthogonalLoop=1;jettySize=auto;html=1;" edge="1" parent="1" source="h6VPQunG_JcqAhJNMBfT-210" target="h6VPQunG_JcqAhJNMBfT-211">
          <mxGeometry relative="1" as="geometry" />
        </mxCell>
        <mxCell id="h6VPQunG_JcqAhJNMBfT-210" value="บันทึกข้อมูล&lt;span style=&quot;font-size: medium; text-align: start;&quot;&gt;&lt;/span&gt;" style="rounded=1;whiteSpace=wrap;html=1;" vertex="1" parent="1">
          <mxGeometry x="725" y="1010" width="77.5" height="40" as="geometry" />
        </mxCell>
        <mxCell id="h6VPQunG_JcqAhJNMBfT-219" style="edgeStyle=orthogonalEdgeStyle;rounded=0;orthogonalLoop=1;jettySize=auto;html=1;entryX=-0.011;entryY=0.822;entryDx=0;entryDy=0;entryPerimeter=0;" edge="1" parent="1" source="h6VPQunG_JcqAhJNMBfT-211" target="h6VPQunG_JcqAhJNMBfT-116">
          <mxGeometry relative="1" as="geometry">
            <Array as="points">
              <mxPoint x="764" y="1140" />
              <mxPoint x="366" y="1140" />
              <mxPoint x="366" y="760" />
            </Array>
          </mxGeometry>
        </mxCell>
        <mxCell id="h6VPQunG_JcqAhJNMBfT-211" value="rerturn Error Code&amp;nbsp;019&lt;span style=&quot;font-size: medium; text-align: start;&quot;&gt;&lt;/span&gt;" style="rounded=1;whiteSpace=wrap;html=1;" vertex="1" parent="1">
          <mxGeometry x="725" y="1070" width="77.5" height="40" as="geometry" />
        </mxCell>
      </root>
    </mxGraphModel>
  </diagram>
</mxfile>
